<svg width="206" height="95" viewBox="0 0 206 95" fill="none" xmlns="http://www.w3.org/2000/svg">
<path opacity="0.95" d="M36.64 57H3.84V49.8C13.92 39.2933 20.3467 32.2267 23.12 28.6C25.9467 24.9733 27.36 21.56 27.36 18.36C27.36 16.0133 26.6133 14.1467 25.12 12.76C23.6267 11.3733 21.8133 10.68 19.68 10.68C14.9867 10.68 11.2 12.7867 8.32 17L2.88 11.48C6.98667 5.72 12.6133 2.84 19.76 2.84C24.56 2.84 28.5333 4.25333 31.68 7.08C34.8267 9.85333 36.4 13.5867 36.4 18.28C36.4 22.2267 34.9867 26.3067 32.16 30.52C29.3867 34.68 24.2667 40.8933 16.8 49.16H36.64V57ZM61.5869 57.96C58.4935 57.96 55.7469 57.16 53.3469 55.56C51.0002 53.96 49.1335 51.8267 47.7469 49.16C46.4135 46.44 45.4002 43.5067 44.7069 40.36C44.0135 37.16 43.6669 33.8267 43.6669 30.36C43.6669 26.8933 44.0135 23.5867 44.7069 20.44C45.4002 17.24 46.4135 14.3067 47.7469 11.64C49.1335 8.97333 51.0002 6.84 53.3469 5.24C55.7469 3.64 58.4935 2.84 61.5869 2.84C65.6935 2.84 69.1335 4.25333 71.9069 7.08C74.7335 9.85333 76.7069 13.24 77.8269 17.24C79.0002 21.24 79.5869 25.6133 79.5869 30.36C79.5869 35.1067 79.0002 39.48 77.8269 43.48C76.7069 47.48 74.7335 50.8933 71.9069 53.72C69.1335 56.5467 65.6935 57.96 61.5869 57.96ZM61.5869 50.04C67.5602 50.04 70.5469 43.48 70.5469 30.36C70.5469 17.24 67.5602 10.68 61.5869 10.68C55.6669 10.68 52.7069 17.24 52.7069 30.36C52.7069 43.48 55.6669 50.04 61.5869 50.04ZM103.696 57.96C100.603 57.96 97.8563 57.16 95.4563 55.56C93.1096 53.96 91.2429 51.8267 89.8563 49.16C88.5229 46.44 87.5096 43.5067 86.8163 40.36C86.1229 37.16 85.7763 33.8267 85.7763 30.36C85.7763 26.8933 86.1229 23.5867 86.8163 20.44C87.5096 17.24 88.5229 14.3067 89.8563 11.64C91.2429 8.97333 93.1096 6.84 95.4563 5.24C97.8563 3.64 100.603 2.84 103.696 2.84C107.803 2.84 111.243 4.25333 114.016 7.08C116.843 9.85333 118.816 13.24 119.936 17.24C121.11 21.24 121.696 25.6133 121.696 30.36C121.696 35.1067 121.11 39.48 119.936 43.48C118.816 47.48 116.843 50.8933 114.016 53.72C111.243 56.5467 107.803 57.96 103.696 57.96ZM103.696 50.04C109.67 50.04 112.656 43.48 112.656 30.36C112.656 17.24 109.67 10.68 103.696 10.68C97.7763 10.68 94.8163 17.24 94.8163 30.36C94.8163 43.48 97.7763 50.04 103.696 50.04ZM145.806 57.96C142.712 57.96 139.966 57.16 137.566 55.56C135.219 53.96 133.352 51.8267 131.966 49.16C130.632 46.44 129.619 43.5067 128.926 40.36C128.232 37.16 127.886 33.8267 127.886 30.36C127.886 26.8933 128.232 23.5867 128.926 20.44C129.619 17.24 130.632 14.3067 131.966 11.64C133.352 8.97333 135.219 6.84 137.566 5.24C139.966 3.64 142.712 2.84 145.806 2.84C149.912 2.84 153.352 4.25333 156.126 7.08C158.952 9.85333 160.926 13.24 162.046 17.24C163.219 21.24 163.806 25.6133 163.806 30.36C163.806 35.1067 163.219 39.48 162.046 43.48C160.926 47.48 158.952 50.8933 156.126 53.72C153.352 56.5467 149.912 57.96 145.806 57.96ZM145.806 50.04C151.779 50.04 154.766 43.48 154.766 30.36C154.766 17.24 151.779 10.68 145.806 10.68C139.886 10.68 136.926 17.24 136.926 30.36C136.926 43.48 139.886 50.04 145.806 50.04Z" fill="#A30C33"/>
<path opacity="0.95" d="M203.432 32.48H193.384V43.872H188.904V32.48H178.856V28.32H188.904V17.376H193.384V28.32H203.432V32.48Z" fill="#A30C33"/>
<path d="M7.038 85.974C6.486 86.802 5.724 87.216 4.752 87.216C3.78 87.216 3.018 86.724 2.466 85.74V90.312H1.188V78.306H2.466V79.548C2.718 79.104 3.048 78.75 3.456 78.486C3.864 78.222 4.296 78.09 4.752 78.09C5.724 78.09 6.486 78.504 7.038 79.332C7.59 80.16 7.866 81.264 7.866 82.644C7.866 84.024 7.59 85.134 7.038 85.974ZM4.428 86.064C5.112 86.064 5.628 85.746 5.976 85.11C6.336 84.462 6.516 83.64 6.516 82.644C6.516 81.648 6.336 80.832 5.976 80.196C5.628 79.56 5.112 79.242 4.428 79.242C4.032 79.242 3.648 79.38 3.276 79.656C2.916 79.92 2.646 80.25 2.466 80.646V84.624C2.646 85.02 2.916 85.362 3.276 85.65C3.648 85.926 4.032 86.064 4.428 86.064ZM15.5437 87H14.2477V86.064C13.7077 86.832 12.9457 87.216 11.9617 87.216C11.2297 87.216 10.6057 86.952 10.0897 86.424C9.5857 85.896 9.3337 85.194 9.3337 84.318C9.3337 83.442 9.5857 82.746 10.0897 82.23C10.5937 81.714 11.2177 81.456 11.9617 81.456C12.9697 81.456 13.7317 81.828 14.2477 82.572V81.06C14.2477 80.472 14.0917 80.016 13.7797 79.692C13.4677 79.368 13.0297 79.206 12.4657 79.206C11.6377 79.206 10.9117 79.56 10.2877 80.268L9.7117 79.35C10.5157 78.51 11.4997 78.09 12.6637 78.09C13.5637 78.09 14.2657 78.324 14.7697 78.792C15.2857 79.248 15.5437 79.956 15.5437 80.916V87ZM12.3757 86.28C13.2157 86.28 13.8397 85.914 14.2477 85.182V83.526C13.8517 82.782 13.2277 82.41 12.3757 82.41C11.8477 82.41 11.4277 82.596 11.1157 82.968C10.8037 83.328 10.6477 83.784 10.6477 84.336C10.6477 84.888 10.8037 85.35 11.1157 85.722C11.4277 86.094 11.8477 86.28 12.3757 86.28ZM20.4068 87.216C19.0028 87.216 17.9168 86.742 17.1488 85.794L17.8508 85.02C18.4748 85.776 19.3208 86.154 20.3888 86.154C21.0008 86.154 21.4928 86.01 21.8648 85.722C22.2368 85.434 22.4228 85.056 22.4228 84.588C22.4228 83.616 21.7148 83.13 20.2988 83.13H18.6788V82.068H20.2808C20.8808 82.068 21.3608 81.936 21.7208 81.672C22.0928 81.408 22.2788 81.042 22.2788 80.574C22.2788 80.142 22.0928 79.8 21.7208 79.548C21.3488 79.284 20.8628 79.152 20.2628 79.152C19.2908 79.152 18.5348 79.518 17.9948 80.25L17.2748 79.494C17.9948 78.558 18.9788 78.09 20.2268 78.09C21.2348 78.09 22.0448 78.3 22.6568 78.72C23.2808 79.14 23.5928 79.71 23.5928 80.43C23.5928 80.958 23.3948 81.42 22.9988 81.816C22.6148 82.212 22.1588 82.464 21.6308 82.572C22.1828 82.632 22.6688 82.848 23.0888 83.22C23.5208 83.592 23.7368 84.078 23.7368 84.678C23.7368 85.41 23.4428 86.016 22.8548 86.496C22.2668 86.976 21.4508 87.216 20.4068 87.216ZM31.5243 85.974C30.9723 86.802 30.2103 87.216 29.2383 87.216C28.2663 87.216 27.5043 86.724 26.9523 85.74V90.312H25.6743V78.306H26.9523V79.548C27.2043 79.104 27.5343 78.75 27.9423 78.486C28.3503 78.222 28.7823 78.09 29.2383 78.09C30.2103 78.09 30.9723 78.504 31.5243 79.332C32.0763 80.16 32.3523 81.264 32.3523 82.644C32.3523 84.024 32.0763 85.134 31.5243 85.974ZM28.9143 86.064C29.5983 86.064 30.1143 85.746 30.4623 85.11C30.8223 84.462 31.0023 83.64 31.0023 82.644C31.0023 81.648 30.8223 80.832 30.4623 80.196C30.1143 79.56 29.5983 79.242 28.9143 79.242C28.5183 79.242 28.1343 79.38 27.7623 79.656C27.4023 79.92 27.1323 80.25 26.9523 80.646V84.624C27.1323 85.02 27.4023 85.362 27.7623 85.65C28.1343 85.926 28.5183 86.064 28.9143 86.064ZM40.03 87H38.734V86.064C38.194 86.832 37.432 87.216 36.448 87.216C35.716 87.216 35.092 86.952 34.576 86.424C34.072 85.896 33.82 85.194 33.82 84.318C33.82 83.442 34.072 82.746 34.576 82.23C35.08 81.714 35.704 81.456 36.448 81.456C37.456 81.456 38.218 81.828 38.734 82.572V81.06C38.734 80.472 38.578 80.016 38.266 79.692C37.954 79.368 37.516 79.206 36.952 79.206C36.124 79.206 35.398 79.56 34.774 80.268L34.198 79.35C35.002 78.51 35.986 78.09 37.15 78.09C38.05 78.09 38.752 78.324 39.256 78.792C39.772 79.248 40.03 79.956 40.03 80.916V87ZM36.862 86.28C37.702 86.28 38.326 85.914 38.734 85.182V83.526C38.338 82.782 37.714 82.41 36.862 82.41C36.334 82.41 35.914 82.596 35.602 82.968C35.29 83.328 35.134 83.784 35.134 84.336C35.134 84.888 35.29 85.35 35.602 85.722C35.914 86.094 36.334 86.28 36.862 86.28ZM45.4871 86.064C46.2071 86.064 46.7471 85.734 47.1071 85.074C47.4791 84.414 47.6651 83.598 47.6651 82.626C47.6651 81.678 47.4791 80.88 47.1071 80.232C46.7351 79.572 46.1951 79.242 45.4871 79.242C44.7791 79.242 44.2391 79.572 43.8671 80.232C43.4951 80.88 43.3091 81.678 43.3091 82.626C43.3091 83.598 43.4951 84.414 43.8671 85.074C44.2391 85.734 44.7791 86.064 45.4871 86.064ZM48.0791 85.902C47.4671 86.778 46.6031 87.216 45.4871 87.216C44.3711 87.216 43.5011 86.76 42.8771 85.848C42.2651 84.936 41.9591 83.736 41.9591 82.248C41.9591 80.076 42.2291 78.534 42.7691 77.622C43.3091 76.71 44.2811 76.128 45.6851 75.876C46.3571 75.756 46.8251 75.63 47.0891 75.498C47.3531 75.354 47.4851 75.186 47.4851 74.994H48.7631C48.7631 75.318 48.6851 75.6 48.5291 75.84C48.3731 76.068 48.1451 76.26 47.8451 76.416C47.5451 76.56 47.2571 76.674 46.9811 76.758C46.7051 76.83 46.3751 76.902 45.9911 76.974C45.0191 77.154 44.3171 77.466 43.8851 77.91C43.4651 78.342 43.2011 78.954 43.0931 79.746C43.3331 79.278 43.6751 78.888 44.1191 78.576C44.5631 78.252 45.0851 78.09 45.6851 78.09C46.7171 78.09 47.5271 78.528 48.1151 79.404C48.7151 80.268 49.0151 81.342 49.0151 82.626C49.0151 83.922 48.7031 85.014 48.0791 85.902ZM54.1356 87.216C53.0316 87.216 52.1676 86.778 51.5436 85.902C50.9196 85.026 50.6076 83.94 50.6076 82.644C50.6076 81.36 50.9196 80.28 51.5436 79.404C52.1676 78.528 53.0316 78.09 54.1356 78.09C55.2516 78.09 56.1216 78.528 56.7456 79.404C57.3696 80.268 57.6816 81.348 57.6816 82.644C57.6816 83.94 57.3696 85.026 56.7456 85.902C56.1216 86.778 55.2516 87.216 54.1356 87.216ZM54.1356 86.064C54.8556 86.064 55.4016 85.734 55.7736 85.074C56.1456 84.414 56.3316 83.604 56.3316 82.644C56.3316 81.696 56.1456 80.892 55.7736 80.232C55.4016 79.572 54.8556 79.242 54.1356 79.242C53.4276 79.242 52.8876 79.572 52.5156 80.232C52.1436 80.892 51.9576 81.696 51.9576 82.644C51.9576 83.604 52.1436 84.414 52.5156 85.074C52.8876 85.734 53.4276 86.064 54.1356 86.064ZM62.1377 87H60.8417V79.44H58.8437V78.306H64.1357V79.44H62.1377V87ZM65.5369 78.306H66.8329V81.06C66.8329 81.648 66.9589 82.062 67.2109 82.302C67.4749 82.542 67.8949 82.662 68.4709 82.662C69.1909 82.662 69.7849 82.512 70.2529 82.212V78.306H71.5489V87H70.2529V83.238C69.6529 83.622 68.9389 83.814 68.1109 83.814C67.1989 83.814 66.5389 83.622 66.1309 83.238C65.7349 82.854 65.5369 82.254 65.5369 81.438V78.306ZM75.1867 87H73.9087V78.306H75.1867V84.624L78.5707 78.306H79.9027V87H78.6247V80.538L75.1867 87ZM88.7019 87H87.1719L84.7779 83.076L83.5539 84.642V87H82.2759V78.306H83.5539V83.022L87.1719 78.306H88.7019L85.6599 82.212L88.7019 87ZM93.1942 87.216C92.0902 87.216 91.2262 86.778 90.6022 85.902C89.9782 85.026 89.6662 83.94 89.6662 82.644C89.6662 81.36 89.9782 80.28 90.6022 79.404C91.2262 78.528 92.0902 78.09 93.1942 78.09C94.3102 78.09 95.1802 78.528 95.8042 79.404C96.4282 80.268 96.7402 81.348 96.7402 82.644C96.7402 83.94 96.4282 85.026 95.8042 85.902C95.1802 86.778 94.3102 87.216 93.1942 87.216ZM93.1942 86.064C93.9142 86.064 94.4602 85.734 94.8322 85.074C95.2042 84.414 95.3902 83.604 95.3902 82.644C95.3902 81.696 95.2042 80.892 94.8322 80.232C94.4602 79.572 93.9142 79.242 93.1942 79.242C92.4862 79.242 91.9462 79.572 91.5742 80.232C91.2022 80.892 91.0162 81.696 91.0162 82.644C91.0162 83.604 91.2022 84.414 91.5742 85.074C91.9462 85.734 92.4862 86.064 93.1942 86.064ZM102.348 87H98.6763V78.306H102.276C103.032 78.306 103.62 78.51 104.04 78.918C104.472 79.314 104.688 79.854 104.688 80.538C104.688 81.042 104.562 81.462 104.31 81.798C104.07 82.134 103.74 82.368 103.32 82.5C103.764 82.62 104.13 82.884 104.418 83.292C104.706 83.688 104.85 84.138 104.85 84.642C104.85 85.362 104.634 85.938 104.202 86.37C103.782 86.79 103.164 87 102.348 87ZM102.114 85.902C103.05 85.902 103.518 85.44 103.518 84.516C103.518 84.108 103.398 83.766 103.158 83.49C102.918 83.214 102.57 83.076 102.114 83.076H99.9543V85.902H102.114ZM102.042 81.996C102.474 81.996 102.798 81.876 103.014 81.636C103.242 81.396 103.356 81.084 103.356 80.7C103.356 80.316 103.248 80.004 103.032 79.764C102.816 79.512 102.486 79.386 102.042 79.386H99.9543V81.996H102.042Z" fill="#444444"/>
</svg>
