<svg width="111" height="95" viewBox="0 0 111 95" fill="none" xmlns="http://www.w3.org/2000/svg">
<path opacity="0.95" d="M36.64 57H3.84V49.8C13.92 39.2933 20.3467 32.2267 23.12 28.6C25.9467 24.9733 27.36 21.56 27.36 18.36C27.36 16.0133 26.6133 14.1467 25.12 12.76C23.6267 11.3733 21.8133 10.68 19.68 10.68C14.9867 10.68 11.2 12.7867 8.32 17L2.88 11.48C6.98667 5.72 12.6133 2.84 19.76 2.84C24.56 2.84 28.5333 4.25333 31.68 7.08C34.8267 9.85333 36.4 13.5867 36.4 18.28C36.4 22.2267 34.9867 26.3067 32.16 30.52C29.3867 34.68 24.2667 40.8933 16.8 49.16H36.64V57ZM61.0269 57.96C53.6135 57.96 47.9602 55.1067 44.0669 49.4L49.5869 43.8C52.4135 47.96 56.1469 50.04 60.7869 50.04C63.4002 50.04 65.5069 49.1067 67.1069 47.24C68.7069 45.32 69.5069 43 69.5069 40.28C69.5069 37.1867 68.7602 34.7867 67.2669 33.08C65.8269 31.32 63.8002 30.44 61.1869 30.44C57.6669 30.44 54.6269 31.9867 52.0669 35.08L45.5869 33.24V3.64H75.5069V11.4H54.4669V27.24C56.8135 24.2533 60.0669 22.76 64.2269 22.76C68.3335 22.76 71.7202 24.3067 74.3869 27.4C77.1069 30.44 78.4669 34.6533 78.4669 40.04C78.4669 45.32 76.8669 49.64 73.6669 53C70.4669 56.3067 66.2535 57.96 61.0269 57.96Z" fill="#A30C33"/>
<path d="M6.138 78.306V79.44H2.466V87H1.188V78.306H6.138ZM10.8406 87.216C9.73664 87.216 8.87264 86.778 8.24864 85.902C7.62464 85.026 7.31264 83.94 7.31264 82.644C7.31264 81.36 7.62464 80.28 8.24864 79.404C8.87264 78.528 9.73664 78.09 10.8406 78.09C11.9566 78.09 12.8266 78.528 13.4506 79.404C14.0746 80.268 14.3866 81.348 14.3866 82.644C14.3866 83.94 14.0746 85.026 13.4506 85.902C12.8266 86.778 11.9566 87.216 10.8406 87.216ZM10.8406 86.064C11.5606 86.064 12.1066 85.734 12.4786 85.074C12.8506 84.414 13.0366 83.604 13.0366 82.644C13.0366 81.696 12.8506 80.892 12.4786 80.232C12.1066 79.572 11.5606 79.242 10.8406 79.242C10.1326 79.242 9.59264 79.572 9.22064 80.232C8.84864 80.892 8.66264 81.696 8.66264 82.644C8.66264 83.604 8.84864 84.414 9.22064 85.074C9.59264 85.734 10.1326 86.064 10.8406 86.064ZM22.1728 85.974C21.6208 86.802 20.8588 87.216 19.8868 87.216C18.9148 87.216 18.1528 86.724 17.6008 85.74V90.312H16.3228V78.306H17.6008V79.548C17.8528 79.104 18.1828 78.75 18.5908 78.486C18.9988 78.222 19.4308 78.09 19.8868 78.09C20.8588 78.09 21.6208 78.504 22.1728 79.332C22.7248 80.16 23.0008 81.264 23.0008 82.644C23.0008 84.024 22.7248 85.134 22.1728 85.974ZM19.5628 86.064C20.2468 86.064 20.7628 85.746 21.1108 85.11C21.4708 84.462 21.6508 83.64 21.6508 82.644C21.6508 81.648 21.4708 80.832 21.1108 80.196C20.7628 79.56 20.2468 79.242 19.5628 79.242C19.1668 79.242 18.7828 79.38 18.4108 79.656C18.0508 79.92 17.7808 80.25 17.6008 80.646V84.624C17.7808 85.02 18.0508 85.362 18.4108 85.65C18.7828 85.926 19.1668 86.064 19.5628 86.064ZM28.0145 87.216C26.9105 87.216 26.0465 86.778 25.4225 85.902C24.7985 85.026 24.4865 83.94 24.4865 82.644C24.4865 81.36 24.7985 80.28 25.4225 79.404C26.0465 78.528 26.9105 78.09 28.0145 78.09C29.1305 78.09 30.0005 78.528 30.6245 79.404C31.2485 80.268 31.5605 81.348 31.5605 82.644C31.5605 83.94 31.2485 85.026 30.6245 85.902C30.0005 86.778 29.1305 87.216 28.0145 87.216ZM28.0145 86.064C28.7345 86.064 29.2805 85.734 29.6525 85.074C30.0245 84.414 30.2105 83.604 30.2105 82.644C30.2105 81.696 30.0245 80.892 29.6525 80.232C29.2805 79.572 28.7345 79.242 28.0145 79.242C27.3065 79.242 26.7665 79.572 26.3945 80.232C26.0225 80.892 25.8365 81.696 25.8365 82.644C25.8365 83.604 26.0225 84.414 26.3945 85.074C26.7665 85.734 27.3065 86.064 28.0145 86.064ZM32.6326 89.214V85.974C32.9206 85.926 33.1486 85.83 33.3166 85.686C33.4846 85.53 33.6406 85.224 33.7846 84.768C33.9286 84.3 34.0426 83.646 34.1266 82.806L34.5586 78.306H39.4906V85.866H40.4806V89.214H39.2026V87H33.9286V89.214H32.6326ZM35.7466 79.44L35.4226 82.932C35.2666 84.408 34.9126 85.386 34.3606 85.866H38.2126V79.44H35.7466ZM45.2059 87.216C44.1019 87.216 43.2379 86.778 42.6139 85.902C41.9899 85.026 41.6779 83.94 41.6779 82.644C41.6779 81.36 41.9899 80.28 42.6139 79.404C43.2379 78.528 44.1019 78.09 45.2059 78.09C46.3219 78.09 47.1919 78.528 47.8159 79.404C48.4399 80.268 48.7519 81.348 48.7519 82.644C48.7519 83.94 48.4399 85.026 47.8159 85.902C47.1919 86.778 46.3219 87.216 45.2059 87.216ZM45.2059 86.064C45.9259 86.064 46.4719 85.734 46.8439 85.074C47.2159 84.414 47.4019 83.604 47.4019 82.644C47.4019 81.696 47.2159 80.892 46.8439 80.232C46.4719 79.572 45.9259 79.242 45.2059 79.242C44.4979 79.242 43.9579 79.572 43.5859 80.232C43.2139 80.892 43.0279 81.696 43.0279 82.644C43.0279 83.604 43.2139 84.414 43.5859 85.074C43.9579 85.734 44.4979 86.064 45.2059 86.064ZM54.36 87H50.688V78.306H54.288C55.044 78.306 55.632 78.51 56.052 78.918C56.484 79.314 56.7 79.854 56.7 80.538C56.7 81.042 56.574 81.462 56.322 81.798C56.082 82.134 55.752 82.368 55.332 82.5C55.776 82.62 56.142 82.884 56.43 83.292C56.718 83.688 56.862 84.138 56.862 84.642C56.862 85.362 56.646 85.938 56.214 86.37C55.794 86.79 55.176 87 54.36 87ZM54.126 85.902C55.062 85.902 55.53 85.44 55.53 84.516C55.53 84.108 55.41 83.766 55.17 83.49C54.93 83.214 54.582 83.076 54.126 83.076H51.966V85.902H54.126ZM54.054 81.996C54.486 81.996 54.81 81.876 55.026 81.636C55.254 81.396 55.368 81.084 55.368 80.7C55.368 80.316 55.26 80.004 55.044 79.764C54.828 79.512 54.498 79.386 54.054 79.386H51.966V81.996H54.054ZM64.4168 87H62.9768V74.994H66.6308C67.6868 74.994 68.5028 75.336 69.0788 76.02C69.6548 76.704 69.9428 77.562 69.9428 78.594C69.9428 79.614 69.6488 80.472 69.0608 81.168C68.4848 81.852 67.6748 82.194 66.6308 82.194H64.4168V87ZM66.4868 80.934C67.0988 80.934 67.5788 80.718 67.9268 80.286C68.2868 79.854 68.4668 79.29 68.4668 78.594C68.4668 77.898 68.2868 77.334 67.9268 76.902C67.5788 76.47 67.0988 76.254 66.4868 76.254H64.4168V80.934H66.4868ZM74.4735 87.216C73.3695 87.216 72.5055 86.778 71.8815 85.902C71.2575 85.026 70.9455 83.94 70.9455 82.644C70.9455 81.36 71.2575 80.28 71.8815 79.404C72.5055 78.528 73.3695 78.09 74.4735 78.09C75.5895 78.09 76.4595 78.528 77.0835 79.404C77.7075 80.268 78.0195 81.348 78.0195 82.644C78.0195 83.94 77.7075 85.026 77.0835 85.902C76.4595 86.778 75.5895 87.216 74.4735 87.216ZM74.4735 86.064C75.1935 86.064 75.7395 85.734 76.1115 85.074C76.4835 84.414 76.6695 83.604 76.6695 82.644C76.6695 81.696 76.4835 80.892 76.1115 80.232C75.7395 79.572 75.1935 79.242 74.4735 79.242C73.7655 79.242 73.2255 79.572 72.8535 80.232C72.4815 80.892 72.2955 81.696 72.2955 82.644C72.2955 83.604 72.4815 84.414 72.8535 85.074C73.2255 85.734 73.7655 86.064 74.4735 86.064ZM83.1236 87.216C82.0316 87.216 81.1556 86.784 80.4956 85.92C79.8476 85.056 79.5236 83.964 79.5236 82.644C79.5236 81.324 79.8476 80.238 80.4956 79.386C81.1556 78.522 82.0316 78.09 83.1236 78.09C84.1556 78.09 84.9836 78.474 85.6076 79.242L84.9056 80.124C84.4736 79.536 83.9156 79.242 83.2316 79.242C82.4876 79.242 81.9056 79.566 81.4856 80.214C81.0776 80.862 80.8736 81.672 80.8736 82.644C80.8736 83.616 81.0776 84.432 81.4856 85.092C81.9056 85.74 82.4876 86.064 83.2316 86.064C83.9036 86.064 84.4616 85.77 84.9056 85.182L85.6076 86.064C84.9956 86.832 84.1676 87.216 83.1236 87.216ZM90.4361 87.216C89.3441 87.216 88.4681 86.784 87.8081 85.92C87.1601 85.056 86.8361 83.964 86.8361 82.644C86.8361 81.324 87.1601 80.238 87.8081 79.386C88.4681 78.522 89.3441 78.09 90.4361 78.09C91.4681 78.09 92.2961 78.474 92.9201 79.242L92.2181 80.124C91.7861 79.536 91.2281 79.242 90.5441 79.242C89.8001 79.242 89.2181 79.566 88.7981 80.214C88.3901 80.862 88.1861 81.672 88.1861 82.644C88.1861 83.616 88.3901 84.432 88.7981 85.092C89.2181 85.74 89.8001 86.064 90.5441 86.064C91.2161 86.064 91.7741 85.77 92.2181 85.182L92.9201 86.064C92.3081 86.832 91.4801 87.216 90.4361 87.216ZM95.8586 87H94.5806V78.306H95.8586V84.624L99.2426 78.306H100.575V87H99.2966V80.538L95.8586 87ZM104.226 87H102.948V78.306H104.226V84.624L107.61 78.306H108.942V87H107.664V80.538L104.226 87Z" fill="#444444"/>
</svg>
