<svg width="178" height="140" viewBox="0 0 178 140" fill="none" xmlns="http://www.w3.org/2000/svg">
<circle opacity="0.05" cx="89" cy="55" r="55" fill="black"/>
<g opacity="0.9">
<path d="M69.0341 45.3129C69.2802 43.3072 70.9836 41.8 73.0044 41.8H106.002C108.069 41.8 109.796 43.375 109.985 45.4335L112.598 73.8281C112.814 76.172 110.969 78.1946 108.615 78.1946H69.5207C67.1184 78.1946 65.258 76.0919 65.5505 73.7075L69.0341 45.3129Z" stroke="#B01736" stroke-width="2"/>
<path d="M89 50.6367V69.3566" stroke="#B01736" stroke-width="2" stroke-linecap="round"/>
<path d="M79.1523 59.9971H98.8447" stroke="#B01736" stroke-width="2" stroke-linecap="round"/>
<path d="M98.5984 41.7996V35.5996C98.5984 33.3905 96.8076 31.5996 94.5984 31.5996H83.3984C81.1893 31.5996 79.3984 33.3905 79.3984 35.5996V41.7996" stroke="#B01736" stroke-width="2"/>
</g>
<path d="M73.2078 138.214V134.848C73.6398 134.812 73.9758 134.698 74.2158 134.506C74.4678 134.314 74.6958 133.876 74.8998 133.192C75.1158 132.508 75.2898 131.5 75.4218 130.168L75.9978 123.994H81.8298V134.722H82.9098V138.214H81.4878V136H74.6298V138.214H73.2078ZM76.8258 130.276C76.6098 132.508 76.1118 133.99 75.3318 134.722H80.4078V125.254H77.2938L76.8258 130.276ZM94.3914 136H92.9874V126.568L89.7834 136H89.2254L86.0574 126.568V136H84.6174V123.994H86.6154L89.5134 132.526L92.4294 123.994H94.3914V136ZM101.153 136.216C99.7365 136.216 98.6025 135.64 97.7505 134.488C96.9105 133.324 96.4905 131.83 96.4905 130.006C96.4905 128.182 96.9105 126.694 97.7505 125.542C98.6025 124.378 99.7365 123.796 101.153 123.796C102.677 123.796 103.847 124.576 104.663 126.136L103.475 126.694C102.935 125.614 102.161 125.074 101.153 125.074C100.193 125.074 99.4185 125.536 98.8305 126.46C98.2545 127.384 97.9665 128.566 97.9665 130.006C97.9665 131.446 98.2545 132.628 98.8305 133.552C99.4185 134.476 100.193 134.938 101.153 134.938C102.197 134.938 102.977 134.344 103.493 133.156L104.699 133.714C103.871 135.382 102.689 136.216 101.153 136.216Z" fill="#444444"/>
</svg>
