<svg width="111" height="140" viewBox="0 0 111 140" fill="none" xmlns="http://www.w3.org/2000/svg">
<circle opacity="0.05" cx="55.9984" cy="55" r="55" fill="black"/>
<rect x="58.9359" y="58.8945" width="9" height="9" rx="1" stroke="#B01736" stroke-width="2"/>
<path d="M40.1469 52.2354V66.1177V77.0001C40.1469 77.5524 40.5946 78.0001 41.1469 78.0001H70.9313C71.4836 78.0001 71.9313 77.5524 71.9313 77.0001V52.2354M54.1469 78.0001V59.8952C54.1469 59.3429 53.6991 58.8952 53.1469 58.8952H46.1469C45.5946 58.8952 45.1469 59.3429 45.1469 59.8952V78.0001" stroke="#B01736" stroke-width="2"/>
<path d="M34.446 52H77.5508C78.9134 52 79.5185 50.3298 78.4582 49.4956L56.6178 32.3124C56.0828 31.8915 55.3177 31.8964 54.7884 32.3241L33.524 49.5073C32.4823 50.3491 33.0929 52 34.446 52Z" stroke="#B01736" stroke-width="2"/>
<path d="M29.1444 136H27.7584V123.994H29.1984V132.922L34.0944 123.994H35.5344V136H34.1124V126.892L29.1444 136ZM43.9812 136H42.7032V128.44H39.2652V136H37.9872V127.306H43.9812V136ZM49.4504 136.216C48.3464 136.216 47.4824 135.778 46.8584 134.902C46.2344 134.026 45.9224 132.94 45.9224 131.644C45.9224 130.36 46.2344 129.28 46.8584 128.404C47.4824 127.528 48.3464 127.09 49.4504 127.09C50.5664 127.09 51.4364 127.528 52.0604 128.404C52.6844 129.268 52.9964 130.348 52.9964 131.644C52.9964 132.94 52.6844 134.026 52.0604 134.902C51.4364 135.778 50.5664 136.216 49.4504 136.216ZM49.4504 135.064C50.1704 135.064 50.7164 134.734 51.0884 134.074C51.4604 133.414 51.6464 132.604 51.6464 131.644C51.6464 130.696 51.4604 129.892 51.0884 129.232C50.7164 128.572 50.1704 128.242 49.4504 128.242C48.7424 128.242 48.2024 128.572 47.8304 129.232C47.4584 129.892 47.2724 130.696 47.2724 131.644C47.2724 132.604 47.4584 133.414 47.8304 134.074C48.2024 134.734 48.7424 135.064 49.4504 135.064ZM57.4525 136H56.1565V128.44H54.1585V127.306H59.4505V128.44H57.4525V136ZM64.3437 136.216C63.2037 136.216 62.2977 135.796 61.6257 134.956C60.9537 134.104 60.6177 133 60.6177 131.644C60.6177 130.348 60.9357 129.268 61.5717 128.404C62.2197 127.528 63.0777 127.09 64.1457 127.09C65.2497 127.09 66.0957 127.522 66.6837 128.386C67.2837 129.25 67.5837 130.348 67.5837 131.68V132.076H61.9497C61.9737 132.976 62.2077 133.714 62.6517 134.29C63.0957 134.854 63.6957 135.136 64.4517 135.136C65.2677 135.136 65.9577 134.782 66.5217 134.074L67.2057 134.83C66.4497 135.754 65.4957 136.216 64.3437 136.216ZM66.3057 131.122C66.2937 130.342 66.1077 129.658 65.7477 129.07C65.3877 128.47 64.8477 128.17 64.1277 128.17C63.4317 128.17 62.8977 128.476 62.5257 129.088C62.1657 129.688 61.9737 130.366 61.9497 131.122H66.3057ZM75.8956 136H74.3656L71.9716 132.076L70.7476 133.642V136H69.4696V127.306H70.7476V132.022L74.3656 127.306H75.8956L72.8536 131.212L75.8956 136ZM78.6402 136H77.3622V127.306H78.6402V133.624L82.0242 127.306H83.3562V136H82.0782V129.538L78.6402 136Z" fill="#444444"/>
</svg>
