<svg width="240" height="112" viewBox="0 0 240 112" fill="none" xmlns="http://www.w3.org/2000/svg">
<path opacity="0.95" d="M19.2 57.96C15.3067 57.96 11.8667 57.16 8.88 55.56C5.89333 53.9067 3.57333 51.8 1.92 49.24L7.36 43.72C10.2933 47.9333 14.1067 50.04 18.8 50.04C21.7333 50.04 23.92 49.2933 25.36 47.8C26.8533 46.3067 27.6 44.2533 27.6 41.64C27.6 36.3067 24.5067 33.64 18.32 33.64C15.7067 33.64 14.16 33.6933 13.68 33.8V25.8C14.2133 25.8533 15.7067 25.88 18.16 25.88C20.7733 25.88 22.88 25.2667 24.48 24.04C26.08 22.76 26.88 20.92 26.88 18.52C26.88 15.96 26.1067 14.0133 24.56 12.68C23.0667 11.3467 21.0667 10.68 18.56 10.68C14.2933 10.68 10.72 12.6 7.84 16.44L2.64 11.32C6.48 5.66666 12 2.84 19.2 2.84C24.2133 2.84 28.2133 4.09333 31.2 6.6C34.1867 9.05333 35.68 12.5733 35.68 17.16C35.68 20.2 34.72 22.8667 32.8 25.16C30.88 27.4 28.56 28.8133 25.84 29.4C28.6133 29.8267 31.0667 31.24 33.2 33.64C35.3333 35.9867 36.4 38.92 36.4 42.44C36.4 47.0267 34.8533 50.76 31.76 53.64C28.6667 56.52 24.48 57.96 19.2 57.96ZM60.7275 57.96C57.6342 57.96 54.8875 57.16 52.4875 55.56C50.1408 53.96 48.2742 51.8267 46.8875 49.16C45.5542 46.44 44.5408 43.5067 43.8475 40.36C43.1542 37.16 42.8075 33.8267 42.8075 30.36C42.8075 26.8933 43.1542 23.5867 43.8475 20.44C44.5408 17.24 45.5542 14.3067 46.8875 11.64C48.2742 8.97333 50.1408 6.84 52.4875 5.24C54.8875 3.64 57.6342 2.84 60.7275 2.84C64.8342 2.84 68.2742 4.25333 71.0475 7.08C73.8742 9.85333 75.8475 13.24 76.9675 17.24C78.1408 21.24 78.7275 25.6133 78.7275 30.36C78.7275 35.1067 78.1408 39.48 76.9675 43.48C75.8475 47.48 73.8742 50.8933 71.0475 53.72C68.2742 56.5467 64.8342 57.96 60.7275 57.96ZM60.7275 50.04C66.7008 50.04 69.6875 43.48 69.6875 30.36C69.6875 17.24 66.7008 10.68 60.7275 10.68C54.8075 10.68 51.8475 17.24 51.8475 30.36C51.8475 43.48 54.8075 50.04 60.7275 50.04ZM102.837 57.96C99.7435 57.96 96.9969 57.16 94.5969 55.56C92.2502 53.96 90.3835 51.8267 88.9969 49.16C87.6635 46.44 86.6502 43.5067 85.9569 40.36C85.2635 37.16 84.9169 33.8267 84.9169 30.36C84.9169 26.8933 85.2635 23.5867 85.9569 20.44C86.6502 17.24 87.6635 14.3067 88.9969 11.64C90.3835 8.97333 92.2502 6.84 94.5969 5.24C96.9969 3.64 99.7435 2.84 102.837 2.84C106.944 2.84 110.384 4.25333 113.157 7.08C115.984 9.85333 117.957 13.24 119.077 17.24C120.25 21.24 120.837 25.6133 120.837 30.36C120.837 35.1067 120.25 39.48 119.077 43.48C117.957 47.48 115.984 50.8933 113.157 53.72C110.384 56.5467 106.944 57.96 102.837 57.96ZM102.837 50.04C108.81 50.04 111.797 43.48 111.797 30.36C111.797 17.24 108.81 10.68 102.837 10.68C96.9169 10.68 93.9569 17.24 93.9569 30.36C93.9569 43.48 96.9169 50.04 102.837 50.04ZM144.946 57.96C141.853 57.96 139.106 57.16 136.706 55.56C134.36 53.96 132.493 51.8267 131.106 49.16C129.773 46.44 128.76 43.5067 128.066 40.36C127.373 37.16 127.026 33.8267 127.026 30.36C127.026 26.8933 127.373 23.5867 128.066 20.44C128.76 17.24 129.773 14.3067 131.106 11.64C132.493 8.97333 134.36 6.84 136.706 5.24C139.106 3.64 141.853 2.84 144.946 2.84C149.053 2.84 152.493 4.25333 155.266 7.08C158.093 9.85333 160.066 13.24 161.186 17.24C162.36 21.24 162.946 25.6133 162.946 30.36C162.946 35.1067 162.36 39.48 161.186 43.48C160.066 47.48 158.093 50.8933 155.266 53.72C152.493 56.5467 149.053 57.96 144.946 57.96ZM144.946 50.04C150.92 50.04 153.906 43.48 153.906 30.36C153.906 17.24 150.92 10.68 144.946 10.68C139.026 10.68 136.066 17.24 136.066 30.36C136.066 43.48 139.026 50.04 144.946 50.04Z" fill="#A30C33"/>
<path opacity="0.95" d="M203.432 32.48H193.384V43.872H188.904V32.48H178.856V28.32H188.904V17.376H193.384V28.32H203.432V32.48Z" fill="#A30C33"/>
<path d="M4.356 85.216C3.264 85.216 2.388 84.784 1.728 83.92C1.08 83.056 0.756 81.964 0.756 80.644C0.756 79.324 1.08 78.238 1.728 77.386C2.388 76.522 3.264 76.09 4.356 76.09C5.388 76.09 6.216 76.474 6.84 77.242L6.138 78.124C5.706 77.536 5.148 77.242 4.464 77.242C3.72 77.242 3.138 77.566 2.718 78.214C2.31 78.862 2.106 79.672 2.106 80.644C2.106 81.616 2.31 82.432 2.718 83.092C3.138 83.74 3.72 84.064 4.464 84.064C5.136 84.064 5.694 83.77 6.138 83.182L6.84 84.064C6.228 84.832 5.4 85.216 4.356 85.216ZM11.5965 85.216C10.4925 85.216 9.6285 84.778 9.0045 83.902C8.3805 83.026 8.0685 81.94 8.0685 80.644C8.0685 79.36 8.3805 78.28 9.0045 77.404C9.6285 76.528 10.4925 76.09 11.5965 76.09C12.7125 76.09 13.5825 76.528 14.2065 77.404C14.8305 78.268 15.1425 79.348 15.1425 80.644C15.1425 81.94 14.8305 83.026 14.2065 83.902C13.5825 84.778 12.7125 85.216 11.5965 85.216ZM11.5965 84.064C12.3165 84.064 12.8625 83.734 13.2345 83.074C13.6065 82.414 13.7925 81.604 13.7925 80.644C13.7925 79.696 13.6065 78.892 13.2345 78.232C12.8625 77.572 12.3165 77.242 11.5965 77.242C10.8885 77.242 10.3485 77.572 9.9765 78.232C9.6045 78.892 9.4185 79.696 9.4185 80.644C9.4185 81.604 9.6045 82.414 9.9765 83.074C10.3485 83.734 10.8885 84.064 11.5965 84.064ZM19.5986 85H18.3026V77.44H16.3046V76.306H21.5966V77.44H19.5986V85ZM29.0458 83.974C28.4938 84.802 27.7318 85.216 26.7598 85.216C25.7878 85.216 25.0258 84.724 24.4738 83.74V88.312H23.1958V76.306H24.4738V77.548C24.7258 77.104 25.0558 76.75 25.4638 76.486C25.8718 76.222 26.3038 76.09 26.7598 76.09C27.7318 76.09 28.4938 76.504 29.0458 77.332C29.5978 78.16 29.8738 79.264 29.8738 80.644C29.8738 82.024 29.5978 83.134 29.0458 83.974ZM26.4358 84.064C27.1198 84.064 27.6358 83.746 27.9838 83.11C28.3438 82.462 28.5238 81.64 28.5238 80.644C28.5238 79.648 28.3438 78.832 27.9838 78.196C27.6358 77.56 27.1198 77.242 26.4358 77.242C26.0398 77.242 25.6558 77.38 25.2838 77.656C24.9238 77.92 24.6538 78.25 24.4738 78.646V82.624C24.6538 83.02 24.9238 83.362 25.2838 83.65C25.6558 83.926 26.0398 84.064 26.4358 84.064ZM31.3415 88.402L31.5395 87.25C31.6955 87.334 31.8875 87.376 32.1155 87.376C32.3795 87.376 32.5835 87.31 32.7275 87.178C32.8835 87.058 33.0215 86.836 33.1415 86.512L33.6095 85.18L30.7115 76.306H32.1155L34.2755 83.434L36.4535 76.306H37.8395L34.3655 86.836C34.1615 87.448 33.8795 87.88 33.5195 88.132C33.1715 88.396 32.7335 88.528 32.2055 88.528C31.8575 88.528 31.5695 88.486 31.3415 88.402ZM38.2752 87.214V83.974C38.5632 83.926 38.7912 83.83 38.9592 83.686C39.1272 83.53 39.2832 83.224 39.4272 82.768C39.5712 82.3 39.6852 81.646 39.7692 80.806L40.2012 76.306H45.1332V83.866H46.1232V87.214H44.8452V85H39.5712V87.214H38.2752ZM41.3892 77.44L41.0652 80.932C40.9092 82.408 40.5552 83.386 40.0032 83.866H43.8552V77.44H41.3892ZM49.0305 85H47.7525V76.306H49.0305V79.924H52.4685V76.306H53.7465V85H52.4685V81.058H49.0305V85ZM57.3976 85H56.1196V76.306H57.3976V82.624L60.7816 76.306H62.1136V85H60.8356V78.538L57.3976 85ZM70.9128 85H69.3828L66.9888 81.076L65.7648 82.642V85H64.4868V76.306H65.7648V81.022L69.3828 76.306H70.9128L67.8708 80.212L70.9128 85ZM75.4051 85.216C74.3011 85.216 73.4371 84.778 72.8131 83.902C72.1891 83.026 71.8771 81.94 71.8771 80.644C71.8771 79.36 72.1891 78.28 72.8131 77.404C73.4371 76.528 74.3011 76.09 75.4051 76.09C76.5211 76.09 77.3911 76.528 78.0151 77.404C78.6391 78.268 78.9511 79.348 78.9511 80.644C78.9511 81.94 78.6391 83.026 78.0151 83.902C77.3911 84.778 76.5211 85.216 75.4051 85.216ZM75.4051 84.064C76.1251 84.064 76.6711 83.734 77.0431 83.074C77.4151 82.414 77.6011 81.604 77.6011 80.644C77.6011 79.696 77.4151 78.892 77.0431 78.232C76.6711 77.572 76.1251 77.242 75.4051 77.242C74.6971 77.242 74.1571 77.572 73.7851 78.232C73.4131 78.892 73.2271 79.696 73.2271 80.644C73.2271 81.604 73.4131 82.414 73.7851 83.074C74.1571 83.734 74.6971 84.064 75.4051 84.064ZM84.5592 85H80.8872V76.306H84.4872C85.2432 76.306 85.8312 76.51 86.2512 76.918C86.6832 77.314 86.8992 77.854 86.8992 78.538C86.8992 79.042 86.7732 79.462 86.5212 79.798C86.2812 80.134 85.9512 80.368 85.5312 80.5C85.9752 80.62 86.3412 80.884 86.6292 81.292C86.9172 81.688 87.0612 82.138 87.0612 82.642C87.0612 83.362 86.8452 83.938 86.4132 84.37C85.9932 84.79 85.3752 85 84.5592 85ZM84.3252 83.902C85.2612 83.902 85.7292 83.44 85.7292 82.516C85.7292 82.108 85.6092 81.766 85.3692 81.49C85.1292 81.214 84.7812 81.076 84.3252 81.076H82.1652V83.902H84.3252ZM84.2532 79.996C84.6852 79.996 85.0092 79.876 85.2252 79.636C85.4532 79.396 85.5672 79.084 85.5672 78.7C85.5672 78.316 85.4592 78.004 85.2432 77.764C85.0272 77.512 84.6972 77.386 84.2532 77.386H82.1652V79.996H84.2532ZM96.398 85.216C95.258 85.216 94.352 84.796 93.68 83.956C93.008 83.104 92.672 82 92.672 80.644C92.672 79.348 92.99 78.268 93.626 77.404C94.274 76.528 95.132 76.09 96.2 76.09C97.304 76.09 98.15 76.522 98.738 77.386C99.338 78.25 99.638 79.348 99.638 80.68V81.076H94.004C94.028 81.976 94.262 82.714 94.706 83.29C95.15 83.854 95.75 84.136 96.506 84.136C97.322 84.136 98.012 83.782 98.576 83.074L99.26 83.83C98.504 84.754 97.55 85.216 96.398 85.216ZM98.36 80.122C98.348 79.342 98.162 78.658 97.802 78.07C97.442 77.47 96.902 77.17 96.182 77.17C95.486 77.17 94.952 77.476 94.58 78.088C94.22 78.688 94.028 79.366 94.004 80.122H98.36ZM102.136 85H100.606L103.63 80.212L100.606 76.306H102.118L105.016 80.104V76.306H106.312V80.086L109.192 76.306H110.722L107.68 80.212L110.722 85H109.192L106.816 81.076L106.312 81.724V85H105.016V81.724L104.512 81.076L102.136 85ZM115.4 85.216C114.26 85.216 113.354 84.796 112.682 83.956C112.01 83.104 111.674 82 111.674 80.644C111.674 79.348 111.992 78.268 112.628 77.404C113.276 76.528 114.134 76.09 115.202 76.09C116.306 76.09 117.152 76.522 117.74 77.386C118.34 78.25 118.64 79.348 118.64 80.68V81.076H113.006C113.03 81.976 113.264 82.714 113.708 83.29C114.152 83.854 114.752 84.136 115.508 84.136C116.324 84.136 117.014 83.782 117.578 83.074L118.262 83.83C117.506 84.754 116.552 85.216 115.4 85.216ZM117.362 80.122C117.35 79.342 117.164 78.658 116.804 78.07C116.444 77.47 115.904 77.17 115.184 77.17C114.488 77.17 113.954 77.476 113.582 78.088C113.222 78.688 113.03 79.366 113.006 80.122H117.362ZM125.476 76.306V77.44H121.804V85H120.526V76.306H125.476ZM130.179 85.216C129.075 85.216 128.211 84.778 127.587 83.902C126.963 83.026 126.651 81.94 126.651 80.644C126.651 79.36 126.963 78.28 127.587 77.404C128.211 76.528 129.075 76.09 130.179 76.09C131.295 76.09 132.165 76.528 132.789 77.404C133.413 78.268 133.725 79.348 133.725 80.644C133.725 81.94 133.413 83.026 132.789 83.902C132.165 84.778 131.295 85.216 130.179 85.216ZM130.179 84.064C130.899 84.064 131.445 83.734 131.817 83.074C132.189 82.414 132.375 81.604 132.375 80.644C132.375 79.696 132.189 78.892 131.817 78.232C131.445 77.572 130.899 77.242 130.179 77.242C129.471 77.242 128.931 77.572 128.559 78.232C128.187 78.892 128.001 79.696 128.001 80.644C128.001 81.604 128.187 82.414 128.559 83.074C128.931 83.734 129.471 84.064 130.179 84.064ZM134.797 87.214V83.974C135.085 83.926 135.313 83.83 135.481 83.686C135.649 83.53 135.805 83.224 135.949 82.768C136.093 82.3 136.207 81.646 136.291 80.806L136.723 76.306H141.655V83.866H142.645V87.214H141.367V85H136.093V87.214H134.797ZM137.911 77.44L137.587 80.932C137.431 82.408 137.077 83.386 136.525 83.866H140.377V77.44H137.911ZM145.552 85H144.274V76.306H145.552V79.924H148.99V76.306H150.268V85H148.99V81.058H145.552V85ZM155.737 85.216C154.633 85.216 153.769 84.778 153.145 83.902C152.521 83.026 152.209 81.94 152.209 80.644C152.209 79.36 152.521 78.28 153.145 77.404C153.769 76.528 154.633 76.09 155.737 76.09C156.853 76.09 157.723 76.528 158.347 77.404C158.971 78.268 159.283 79.348 159.283 80.644C159.283 81.94 158.971 83.026 158.347 83.902C157.723 84.778 156.853 85.216 155.737 85.216ZM155.737 84.064C156.457 84.064 157.003 83.734 157.375 83.074C157.747 82.414 157.933 81.604 157.933 80.644C157.933 79.696 157.747 78.892 157.375 78.232C157.003 77.572 156.457 77.242 155.737 77.242C155.029 77.242 154.489 77.572 154.117 78.232C153.745 78.892 153.559 79.696 153.559 80.644C153.559 81.604 153.745 82.414 154.117 83.074C154.489 83.734 155.029 84.064 155.737 84.064ZM7.182 107H5.904V99.44H2.466V107H1.188V98.306H7.182V107ZM15.4052 105.974C14.8532 106.802 14.0912 107.216 13.1192 107.216C12.1472 107.216 11.3852 106.724 10.8332 105.74V110.312H9.55519V98.306H10.8332V99.548C11.0852 99.104 11.4152 98.75 11.8232 98.486C12.2312 98.222 12.6632 98.09 13.1192 98.09C14.0912 98.09 14.8532 98.504 15.4052 99.332C15.9572 100.16 16.2332 101.264 16.2332 102.644C16.2332 104.024 15.9572 105.134 15.4052 105.974ZM12.7952 106.064C13.4792 106.064 13.9952 105.746 14.3432 105.11C14.7032 104.462 14.8832 103.64 14.8832 102.644C14.8832 101.648 14.7032 100.832 14.3432 100.196C13.9952 99.56 13.4792 99.242 12.7952 99.242C12.3992 99.242 12.0152 99.38 11.6432 99.656C11.2832 99.92 11.0132 100.25 10.8332 100.646V104.624C11.0132 105.02 11.2832 105.362 11.6432 105.65C12.0152 105.926 12.3992 106.064 12.7952 106.064ZM21.2469 107.216C20.1429 107.216 19.2789 106.778 18.6549 105.902C18.0309 105.026 17.7189 103.94 17.7189 102.644C17.7189 101.36 18.0309 100.28 18.6549 99.404C19.2789 98.528 20.1429 98.09 21.2469 98.09C22.3629 98.09 23.2329 98.528 23.8569 99.404C24.4809 100.268 24.7929 101.348 24.7929 102.644C24.7929 103.94 24.4809 105.026 23.8569 105.902C23.2329 106.778 22.3629 107.216 21.2469 107.216ZM21.2469 106.064C21.9669 106.064 22.5129 105.734 22.8849 105.074C23.2569 104.414 23.4429 103.604 23.4429 102.644C23.4429 101.696 23.2569 100.892 22.8849 100.232C22.5129 99.572 21.9669 99.242 21.2469 99.242C20.5389 99.242 19.9989 99.572 19.6269 100.232C19.2549 100.892 19.0689 101.696 19.0689 102.644C19.0689 103.604 19.2549 104.414 19.6269 105.074C19.9989 105.734 20.5389 106.064 21.2469 106.064ZM32.176 107H30.736L28.738 103.508L26.74 107H25.3L27.946 102.572L25.444 98.306H26.884L28.738 101.618L30.592 98.306H32.032L29.53 102.572L32.176 107ZM36.2235 107.216C35.1195 107.216 34.2555 106.778 33.6315 105.902C33.0075 105.026 32.6955 103.94 32.6955 102.644C32.6955 101.36 33.0075 100.28 33.6315 99.404C34.2555 98.528 35.1195 98.09 36.2235 98.09C37.3395 98.09 38.2095 98.528 38.8335 99.404C39.4575 100.268 39.7695 101.348 39.7695 102.644C39.7695 103.94 39.4575 105.026 38.8335 105.902C38.2095 106.778 37.3395 107.216 36.2235 107.216ZM36.2235 106.064C36.9435 106.064 37.4895 105.734 37.8615 105.074C38.2335 104.414 38.4195 103.604 38.4195 102.644C38.4195 101.696 38.2335 100.892 37.8615 100.232C37.4895 99.572 36.9435 99.242 36.2235 99.242C35.5155 99.242 34.9755 99.572 34.6035 100.232C34.2315 100.892 34.0455 101.696 34.0455 102.644C34.0455 103.604 34.2315 104.414 34.6035 105.074C34.9755 105.734 35.5155 106.064 36.2235 106.064ZM40.8416 109.214V105.974C41.1296 105.926 41.3576 105.83 41.5256 105.686C41.6936 105.53 41.8496 105.224 41.9936 104.768C42.1376 104.3 42.2516 103.646 42.3356 102.806L42.7676 98.306H47.6996V105.866H48.6896V109.214H47.4116V107H42.1376V109.214H40.8416ZM43.9556 99.44L43.6316 102.932C43.4756 104.408 43.1216 105.386 42.5696 105.866H46.4216V99.44H43.9556ZM51.5069 107H50.0309L51.9569 103.454C51.4289 103.346 50.9909 103.076 50.6429 102.644C50.2949 102.2 50.1209 101.636 50.1209 100.952C50.1209 100.184 50.3549 99.554 50.8229 99.062C51.3029 98.558 51.9629 98.306 52.8029 98.306H56.2769V107H54.9809V103.598H53.2529L51.5069 107ZM52.9289 102.5H54.9809V99.404H52.9289C52.4609 99.404 52.0949 99.548 51.8309 99.836C51.5789 100.112 51.4529 100.484 51.4529 100.952C51.4529 101.42 51.5789 101.798 51.8309 102.086C52.0829 102.362 52.4489 102.5 52.9289 102.5ZM61.1709 107H59.8749V99.44H57.8769V98.306H63.1689V99.44H61.1709V107ZM71.7313 107.216C70.6273 107.216 69.7633 106.778 69.1393 105.902C68.5153 105.026 68.2033 103.94 68.2033 102.644C68.2033 101.36 68.5153 100.28 69.1393 99.404C69.7633 98.528 70.6273 98.09 71.7313 98.09C72.8473 98.09 73.7173 98.528 74.3413 99.404C74.9653 100.268 75.2773 101.348 75.2773 102.644C75.2773 103.94 74.9653 105.026 74.3413 105.902C73.7173 106.778 72.8473 107.216 71.7313 107.216ZM71.7313 106.064C72.4513 106.064 72.9973 105.734 73.3693 105.074C73.7413 104.414 73.9273 103.604 73.9273 102.644C73.9273 101.696 73.7413 100.892 73.3693 100.232C72.9973 99.572 72.4513 99.242 71.7313 99.242C71.0233 99.242 70.4833 99.572 70.1113 100.232C69.7393 100.892 69.5533 101.696 69.5533 102.644C69.5533 103.604 69.7393 104.414 70.1113 105.074C70.4833 105.734 71.0233 106.064 71.7313 106.064ZM82.9194 109.214V107H77.2134V98.306H78.4914V105.866H81.9294V98.306H83.2074V105.866H84.1974V109.214H82.9194ZM89.1207 107.216C87.9807 107.216 87.0747 106.796 86.4027 105.956C85.7307 105.104 85.3947 104 85.3947 102.644C85.3947 101.348 85.7127 100.268 86.3487 99.404C86.9967 98.528 87.8547 98.09 88.9227 98.09C90.0267 98.09 90.8727 98.522 91.4607 99.386C92.0607 100.25 92.3607 101.348 92.3607 102.68V103.076H86.7267C86.7507 103.976 86.9847 104.714 87.4287 105.29C87.8727 105.854 88.4727 106.136 89.2287 106.136C90.0447 106.136 90.7347 105.782 91.2987 105.074L91.9827 105.83C91.2267 106.754 90.2727 107.216 89.1207 107.216ZM91.0827 102.122C91.0707 101.342 90.8847 100.658 90.5247 100.07C90.1647 99.47 89.6247 99.17 88.9047 99.17C88.2087 99.17 87.6747 99.476 87.3027 100.088C86.9427 100.688 86.7507 101.366 86.7267 102.122H91.0827ZM95.5246 107H94.2466V98.306H95.5246V101.924H98.9626V98.306H100.241V107H98.9626V103.058H95.5246V107ZM109.04 107H107.51L105.116 103.076L103.892 104.642V107H102.614V98.306H103.892V103.022L107.51 98.306H109.04L105.998 102.212L109.04 107ZM110.056 110.402L110.254 109.25C110.41 109.334 110.602 109.376 110.83 109.376C111.094 109.376 111.298 109.31 111.442 109.178C111.598 109.058 111.736 108.836 111.856 108.512L112.324 107.18L109.426 98.306H110.83L112.99 105.434L115.168 98.306H116.554L113.08 108.836C112.876 109.448 112.594 109.88 112.234 110.132C111.886 110.396 111.448 110.528 110.92 110.528C110.572 110.528 110.284 110.486 110.056 110.402ZM122.999 107H121.721V98.306H122.999V104.624L126.383 98.306H127.715V107H126.437V100.538L122.999 107ZM137.052 107.216C135.948 107.216 135.084 106.778 134.46 105.902C133.836 105.026 133.524 103.94 133.524 102.644C133.524 101.36 133.836 100.28 134.46 99.404C135.084 98.528 135.948 98.09 137.052 98.09C138.168 98.09 139.038 98.528 139.662 99.404C140.286 100.268 140.598 101.348 140.598 102.644C140.598 103.94 140.286 105.026 139.662 105.902C139.038 106.778 138.168 107.216 137.052 107.216ZM137.052 106.064C137.772 106.064 138.318 105.734 138.69 105.074C139.062 104.414 139.248 103.604 139.248 102.644C139.248 101.696 139.062 100.892 138.69 100.232C138.318 99.572 137.772 99.242 137.052 99.242C136.344 99.242 135.804 99.572 135.432 100.232C135.06 100.892 134.874 101.696 134.874 102.644C134.874 103.604 135.06 104.414 135.432 105.074C135.804 105.734 136.344 106.064 137.052 106.064ZM145.63 106.064C146.35 106.064 146.89 105.734 147.25 105.074C147.622 104.414 147.808 103.598 147.808 102.626C147.808 101.678 147.622 100.88 147.25 100.232C146.878 99.572 146.338 99.242 145.63 99.242C144.922 99.242 144.382 99.572 144.01 100.232C143.638 100.88 143.452 101.678 143.452 102.626C143.452 103.598 143.638 104.414 144.01 105.074C144.382 105.734 144.922 106.064 145.63 106.064ZM148.222 105.902C147.61 106.778 146.746 107.216 145.63 107.216C144.514 107.216 143.644 106.76 143.02 105.848C142.408 104.936 142.102 103.736 142.102 102.248C142.102 100.076 142.372 98.534 142.912 97.622C143.452 96.71 144.424 96.128 145.828 95.876C146.5 95.756 146.968 95.63 147.232 95.498C147.496 95.354 147.628 95.186 147.628 94.994H148.906C148.906 95.318 148.828 95.6 148.672 95.84C148.516 96.068 148.288 96.26 147.988 96.416C147.688 96.56 147.4 96.674 147.124 96.758C146.848 96.83 146.518 96.902 146.134 96.974C145.162 97.154 144.46 97.466 144.028 97.91C143.608 98.342 143.344 98.954 143.236 99.746C143.476 99.278 143.818 98.888 144.262 98.576C144.706 98.252 145.228 98.09 145.828 98.09C146.86 98.09 147.67 98.528 148.258 99.404C148.858 100.268 149.158 101.342 149.158 102.626C149.158 103.922 148.846 105.014 148.222 105.902ZM150.732 110.402L150.93 109.25C151.086 109.334 151.278 109.376 151.506 109.376C151.77 109.376 151.974 109.31 152.118 109.178C152.274 109.058 152.412 108.836 152.532 108.512L153 107.18L150.102 98.306H151.506L153.666 105.434L155.844 98.306H157.23L153.756 108.836C153.552 109.448 153.27 109.88 152.91 110.132C152.562 110.396 152.124 110.528 151.596 110.528C151.248 110.528 150.96 110.486 150.732 110.402ZM158.332 98.306H159.628V101.06C159.628 101.648 159.754 102.062 160.006 102.302C160.27 102.542 160.69 102.662 161.266 102.662C161.986 102.662 162.58 102.512 163.048 102.212V98.306H164.344V107H163.048V103.238C162.448 103.622 161.734 103.814 160.906 103.814C159.994 103.814 159.334 103.622 158.926 103.238C158.53 102.854 158.332 102.254 158.332 101.438V98.306ZM169.998 107.216C168.858 107.216 167.952 106.796 167.28 105.956C166.608 105.104 166.272 104 166.272 102.644C166.272 101.348 166.59 100.268 167.226 99.404C167.874 98.528 168.732 98.09 169.8 98.09C170.904 98.09 171.75 98.522 172.338 99.386C172.938 100.25 173.238 101.348 173.238 102.68V103.076H167.604C167.628 103.976 167.862 104.714 168.306 105.29C168.75 105.854 169.35 106.136 170.106 106.136C170.922 106.136 171.612 105.782 172.176 105.074L172.86 105.83C172.104 106.754 171.15 107.216 169.998 107.216ZM171.96 102.122C171.948 101.342 171.762 100.658 171.402 100.07C171.042 99.47 170.502 99.17 169.782 99.17C169.086 99.17 168.552 99.476 168.18 100.088C167.82 100.688 167.628 101.366 167.604 102.122H171.96ZM176.402 107H175.124V98.306H176.402V101.924H179.84V98.306H181.118V107H179.84V103.058H176.402V107ZM184.769 107H183.491V98.306H184.769V104.624L188.153 98.306H189.485V107H188.207V100.538L184.769 107ZM195.152 107.216C194.012 107.216 193.106 106.796 192.434 105.956C191.762 105.104 191.426 104 191.426 102.644C191.426 101.348 191.744 100.268 192.38 99.404C193.028 98.528 193.886 98.09 194.954 98.09C196.058 98.09 196.904 98.522 197.492 99.386C198.092 100.25 198.392 101.348 198.392 102.68V103.076H192.758C192.782 103.976 193.016 104.714 193.46 105.29C193.904 105.854 194.504 106.136 195.26 106.136C196.076 106.136 196.766 105.782 197.33 105.074L198.014 105.83C197.258 106.754 196.304 107.216 195.152 107.216ZM197.114 102.122C197.102 101.342 196.916 100.658 196.556 100.07C196.196 99.47 195.656 99.17 194.936 99.17C194.24 99.17 193.706 99.476 193.334 100.088C192.974 100.688 192.782 101.366 192.758 102.122H197.114Z" fill="#444444"/>
</svg>
