<svg width="243" height="95" viewBox="0 0 243 95" fill="none" xmlns="http://www.w3.org/2000/svg">
<path opacity="0.95" d="M26.88 34.464V26.656L1.856 16.8V24.352L19.712 30.624L1.856 36.768V44.32L26.88 34.464Z" fill="#A30C33"/>
<path opacity="0.95" d="M58.2 57.96C54.3067 57.96 50.8667 57.16 47.88 55.56C44.8933 53.9067 42.5733 51.8 40.92 49.24L46.36 43.72C49.2933 47.9333 53.1067 50.04 57.8 50.04C60.7333 50.04 62.92 49.2933 64.36 47.8C65.8533 46.3067 66.6 44.2533 66.6 41.64C66.6 36.3067 63.5067 33.64 57.32 33.64C54.7067 33.64 53.16 33.6933 52.68 33.8V25.8C53.2133 25.8533 54.7067 25.88 57.16 25.88C59.7733 25.88 61.88 25.2667 63.48 24.04C65.08 22.76 65.88 20.92 65.88 18.52C65.88 15.96 65.1067 14.0133 63.56 12.68C62.0667 11.3467 60.0667 10.68 57.56 10.68C53.2933 10.68 49.72 12.6 46.84 16.44L41.64 11.32C45.48 5.66666 51 2.84 58.2 2.84C63.2133 2.84 67.2133 4.09333 70.2 6.6C73.1867 9.05333 74.68 12.5733 74.68 17.16C74.68 20.2 73.72 22.8667 71.8 25.16C69.88 27.4 67.56 28.8133 64.84 29.4C67.6133 29.8267 70.0667 31.24 72.2 33.64C74.3333 35.9867 75.4 38.92 75.4 42.44C75.4 47.0267 73.8533 50.76 70.76 53.64C67.6667 56.52 63.48 57.96 58.2 57.96ZM99.7275 57.96C96.6342 57.96 93.8875 57.16 91.4875 55.56C89.1408 53.96 87.2742 51.8267 85.8875 49.16C84.5542 46.44 83.5408 43.5067 82.8475 40.36C82.1542 37.16 81.8075 33.8267 81.8075 30.36C81.8075 26.8933 82.1542 23.5867 82.8475 20.44C83.5408 17.24 84.5542 14.3067 85.8875 11.64C87.2742 8.97333 89.1408 6.84 91.4875 5.24C93.8875 3.64 96.6342 2.84 99.7275 2.84C103.834 2.84 107.274 4.25333 110.048 7.08C112.874 9.85333 114.848 13.24 115.968 17.24C117.141 21.24 117.728 25.6133 117.728 30.36C117.728 35.1067 117.141 39.48 115.968 43.48C114.848 47.48 112.874 50.8933 110.048 53.72C107.274 56.5467 103.834 57.96 99.7275 57.96ZM99.7275 50.04C105.701 50.04 108.688 43.48 108.688 30.36C108.688 17.24 105.701 10.68 99.7275 10.68C93.8075 10.68 90.8475 17.24 90.8475 30.36C90.8475 43.48 93.8075 50.04 99.7275 50.04ZM139.19 57.96V51.16C140.843 51.16 142.123 50.28 143.03 48.52C143.99 46.76 144.683 43.4533 145.11 38.6L146.87 18.36H171.83V57H163.91V25.32H154.15L153.11 39.24C152.577 46.0667 151.163 50.8933 148.87 53.72C146.577 56.5467 143.35 57.96 139.19 57.96ZM196.738 57.96C191.458 57.96 187.245 56.0933 184.098 52.36C180.951 48.6267 179.378 43.72 179.378 37.64C179.378 31.88 180.871 27.08 183.858 23.24C186.898 19.3467 190.925 17.4 195.938 17.4C201.005 17.4 204.951 19.32 207.778 23.16C210.605 27 212.018 31.9333 212.018 37.96V40.28H187.458C187.618 43.5867 188.578 46.28 190.338 48.36C192.098 50.3867 194.498 51.4 197.538 51.4C201.005 51.4 203.911 50.0133 206.258 47.24L210.098 52.04C206.631 55.9867 202.178 57.96 196.738 57.96ZM204.258 34.6C204.205 31.7733 203.485 29.2933 202.098 27.16C200.765 24.9733 198.685 23.88 195.858 23.88C193.138 23.88 191.085 24.9733 189.698 27.16C188.311 29.3467 187.538 31.8267 187.378 34.6H204.258ZM232.629 57H224.629V25.32H215.909V18.36H241.349V25.32H232.629V57Z" fill="#A30C33"/>
<path d="M2.466 87H1.188V78.306H2.466V81.924H5.904V78.306H7.182V87H5.904V83.058H2.466V87ZM15.3152 87H14.0192V86.064C13.4792 86.832 12.7172 87.216 11.7332 87.216C11.0012 87.216 10.3772 86.952 9.86119 86.424C9.35719 85.896 9.10519 85.194 9.10519 84.318C9.10519 83.442 9.35719 82.746 9.86119 82.23C10.3652 81.714 10.9892 81.456 11.7332 81.456C12.7412 81.456 13.5032 81.828 14.0192 82.572V81.06C14.0192 80.472 13.8632 80.016 13.5512 79.692C13.2392 79.368 12.8012 79.206 12.2372 79.206C11.4092 79.206 10.6832 79.56 10.0592 80.268L9.48319 79.35C10.2872 78.51 11.2712 78.09 12.4352 78.09C13.3352 78.09 14.0372 78.324 14.5412 78.792C15.0572 79.248 15.3152 79.956 15.3152 80.916V87ZM12.1472 86.28C12.9872 86.28 13.6112 85.914 14.0192 85.182V83.526C13.6232 82.782 12.9992 82.41 12.1472 82.41C11.6192 82.41 11.1992 82.596 10.8872 82.968C10.5752 83.328 10.4192 83.784 10.4192 84.336C10.4192 84.888 10.5752 85.35 10.8872 85.722C11.1992 86.094 11.6192 86.28 12.1472 86.28ZM23.0555 87H21.6155V74.994H23.0555V87ZM29.0265 87H27.6045V76.254H24.7605V74.994H31.8885V76.254H29.0265V87ZM35.6957 83.22H31.9697V82.068H35.6957V83.22ZM43.2665 85.974C42.7145 86.802 41.9525 87.216 40.9805 87.216C40.0085 87.216 39.2465 86.724 38.6945 85.74V90.312H37.4165V78.306H38.6945V79.548C38.9465 79.104 39.2765 78.75 39.6845 78.486C40.0925 78.222 40.5245 78.09 40.9805 78.09C41.9525 78.09 42.7145 78.504 43.2665 79.332C43.8185 80.16 44.0945 81.264 44.0945 82.644C44.0945 84.024 43.8185 85.134 43.2665 85.974ZM40.6565 86.064C41.3405 86.064 41.8565 85.746 42.2045 85.11C42.5645 84.462 42.7445 83.64 42.7445 82.644C42.7445 81.648 42.5645 80.832 42.2045 80.196C41.8565 79.56 41.3405 79.242 40.6565 79.242C40.2605 79.242 39.8765 79.38 39.5045 79.656C39.1445 79.92 38.8745 80.25 38.6945 80.646V84.624C38.8745 85.02 39.1445 85.362 39.5045 85.65C39.8765 85.926 40.2605 86.064 40.6565 86.064ZM46.0122 78.306H47.2902V81.708H49.4142C50.2782 81.708 50.9382 81.96 51.3942 82.464C51.8622 82.968 52.0962 83.598 52.0962 84.354C52.0962 85.11 51.8622 85.74 51.3942 86.244C50.9382 86.748 50.2782 87 49.4142 87H46.0122V78.306ZM49.2882 82.806H47.2902V85.902H49.2882C49.7562 85.902 50.1162 85.764 50.3682 85.488C50.6322 85.2 50.7642 84.822 50.7642 84.354C50.7642 83.886 50.6382 83.514 50.3862 83.238C50.1342 82.95 49.7682 82.806 49.2882 82.806ZM54.6522 87H53.3742V78.306H54.6522V87ZM58.3117 87H57.0337V78.306H58.3117V81.924H61.7497V78.306H63.0277V87H61.7497V83.058H58.3117V87ZM71.8269 87H70.2969L67.9029 83.076L66.6789 84.642V87H65.4009V78.306H66.6789V83.022L70.2969 78.306H71.8269L68.7849 82.212L71.8269 87ZM76.5172 87.216C75.3772 87.216 74.4712 86.796 73.7992 85.956C73.1272 85.104 72.7912 84 72.7912 82.644C72.7912 81.348 73.1092 80.268 73.7452 79.404C74.3932 78.528 75.2512 78.09 76.3192 78.09C77.4232 78.09 78.2692 78.522 78.8572 79.386C79.4572 80.25 79.7572 81.348 79.7572 82.68V83.076H74.1232C74.1472 83.976 74.3812 84.714 74.8252 85.29C75.2692 85.854 75.8692 86.136 76.6252 86.136C77.4412 86.136 78.1312 85.782 78.6952 85.074L79.3792 85.83C78.6232 86.754 77.6692 87.216 76.5172 87.216ZM78.4792 82.122C78.4672 81.342 78.2812 80.658 77.9212 80.07C77.5612 79.47 77.0212 79.17 76.3012 79.17C75.6052 79.17 75.0712 79.476 74.6992 80.088C74.3392 80.688 74.1472 81.366 74.1232 82.122H78.4792Z" fill="#444444"/>
</svg>
