<svg width="165" height="95" viewBox="0 0 165 95" fill="none" xmlns="http://www.w3.org/2000/svg">
<path opacity="0.95" d="M32 57H23.2V44.6H1.76V37.16L20.64 3.64H32V36.84H37.6V44.6H32V57ZM23.2 36.84V12.84L9.76 36.84H23.2ZM60.975 57.96C57.6683 57.96 54.7883 57.2133 52.335 55.72C49.935 54.2267 48.015 52.1733 46.575 49.56C45.1883 46.9467 44.1483 44.04 43.455 40.84C42.815 37.64 42.495 34.1467 42.495 30.36C42.495 22.36 44.2017 15.7733 47.615 10.6C51.0283 5.42666 55.9617 2.84 62.415 2.84C68.015 2.84 72.3883 4.89333 75.535 9L71.055 15.48C68.8683 12.28 66.015 10.68 62.495 10.68C59.0283 10.68 56.3083 12.4933 54.335 16.12C52.415 19.6933 51.455 23.96 51.455 28.92V30.12C52.4683 28.1467 54.015 26.4667 56.095 25.08C58.2283 23.64 60.5217 22.92 62.975 22.92C67.135 22.92 70.6017 24.44 73.375 27.48C76.1483 30.4667 77.535 34.68 77.535 40.12C77.535 45.1333 76.015 49.3733 72.975 52.84C69.935 56.2533 65.935 57.96 60.975 57.96ZM60.495 50.04C63.055 50.04 65.0283 49.08 66.415 47.16C67.8017 45.24 68.495 43 68.495 40.44C68.495 37.08 67.7217 34.6 66.175 33C64.6283 31.3467 62.6817 30.52 60.335 30.52C58.5217 30.52 56.8417 31.16 55.295 32.44C53.8017 33.6667 52.5483 35.24 51.535 37.16C51.6417 39.24 51.935 41.1867 52.415 43C52.9483 44.76 53.9083 46.3867 55.295 47.88C56.6817 49.32 58.415 50.04 60.495 50.04ZM101.274 57.96C98.181 57.96 95.4344 57.16 93.0344 55.56C90.6877 53.96 88.821 51.8267 87.4344 49.16C86.101 46.44 85.0877 43.5067 84.3944 40.36C83.701 37.16 83.3544 33.8267 83.3544 30.36C83.3544 26.8933 83.701 23.5867 84.3944 20.44C85.0877 17.24 86.101 14.3067 87.4344 11.64C88.821 8.97333 90.6877 6.84 93.0344 5.24C95.4344 3.64 98.181 2.84 101.274 2.84C105.381 2.84 108.821 4.25333 111.594 7.08C114.421 9.85333 116.394 13.24 117.514 17.24C118.688 21.24 119.274 25.6133 119.274 30.36C119.274 35.1067 118.688 39.48 117.514 43.48C116.394 47.48 114.421 50.8933 111.594 53.72C108.821 56.5467 105.381 57.96 101.274 57.96ZM101.274 50.04C107.248 50.04 110.234 43.48 110.234 30.36C110.234 17.24 107.248 10.68 101.274 10.68C95.3544 10.68 92.3944 17.24 92.3944 30.36C92.3944 43.48 95.3544 50.04 101.274 50.04ZM143.384 57.96C140.29 57.96 137.544 57.16 135.144 55.56C132.797 53.96 130.93 51.8267 129.544 49.16C128.21 46.44 127.197 43.5067 126.504 40.36C125.81 37.16 125.464 33.8267 125.464 30.36C125.464 26.8933 125.81 23.5867 126.504 20.44C127.197 17.24 128.21 14.3067 129.544 11.64C130.93 8.97333 132.797 6.84 135.144 5.24C137.544 3.64 140.29 2.84 143.384 2.84C147.49 2.84 150.93 4.25333 153.704 7.08C156.53 9.85333 158.504 13.24 159.624 17.24C160.797 21.24 161.384 25.6133 161.384 30.36C161.384 35.1067 160.797 39.48 159.624 43.48C158.504 47.48 156.53 50.8933 153.704 53.72C150.93 56.5467 147.49 57.96 143.384 57.96ZM143.384 50.04C149.357 50.04 152.344 43.48 152.344 30.36C152.344 17.24 149.357 10.68 143.384 10.68C137.464 10.68 134.504 17.24 134.504 30.36C134.504 43.48 137.464 50.04 143.384 50.04Z" fill="#A30C33"/>
<path d="M4.356 87.216C3.264 87.216 2.388 86.784 1.728 85.92C1.08 85.056 0.756 83.964 0.756 82.644C0.756 81.324 1.08 80.238 1.728 79.386C2.388 78.522 3.264 78.09 4.356 78.09C5.388 78.09 6.216 78.474 6.84 79.242L6.138 80.124C5.706 79.536 5.148 79.242 4.464 79.242C3.72 79.242 3.138 79.566 2.718 80.214C2.31 80.862 2.106 81.672 2.106 82.644C2.106 83.616 2.31 84.432 2.718 85.092C3.138 85.74 3.72 86.064 4.464 86.064C5.136 86.064 5.694 85.77 6.138 85.182L6.84 86.064C6.228 86.832 5.4 87.216 4.356 87.216ZM11.5965 87.216C10.4925 87.216 9.6285 86.778 9.0045 85.902C8.3805 85.026 8.0685 83.94 8.0685 82.644C8.0685 81.36 8.3805 80.28 9.0045 79.404C9.6285 78.528 10.4925 78.09 11.5965 78.09C12.7125 78.09 13.5825 78.528 14.2065 79.404C14.8305 80.268 15.1425 81.348 15.1425 82.644C15.1425 83.94 14.8305 85.026 14.2065 85.902C13.5825 86.778 12.7125 87.216 11.5965 87.216ZM11.5965 86.064C12.3165 86.064 12.8625 85.734 13.2345 85.074C13.6065 84.414 13.7925 83.604 13.7925 82.644C13.7925 81.696 13.6065 80.892 13.2345 80.232C12.8625 79.572 12.3165 79.242 11.5965 79.242C10.8885 79.242 10.3485 79.572 9.9765 80.232C9.6045 80.892 9.4185 81.696 9.4185 82.644C9.4185 83.604 9.6045 84.414 9.9765 85.074C10.3485 85.734 10.8885 86.064 11.5965 86.064ZM19.5986 87H18.3026V79.44H16.3046V78.306H21.5966V79.44H19.5986V87ZM29.0458 85.974C28.4938 86.802 27.7318 87.216 26.7598 87.216C25.7878 87.216 25.0258 86.724 24.4738 85.74V90.312H23.1958V78.306H24.4738V79.548C24.7258 79.104 25.0558 78.75 25.4638 78.486C25.8718 78.222 26.3038 78.09 26.7598 78.09C27.7318 78.09 28.4938 78.504 29.0458 79.332C29.5978 80.16 29.8738 81.264 29.8738 82.644C29.8738 84.024 29.5978 85.134 29.0458 85.974ZM26.4358 86.064C27.1198 86.064 27.6358 85.746 27.9838 85.11C28.3438 84.462 28.5238 83.64 28.5238 82.644C28.5238 81.648 28.3438 80.832 27.9838 80.196C27.6358 79.56 27.1198 79.242 26.4358 79.242C26.0398 79.242 25.6558 79.38 25.2838 79.656C24.9238 79.92 24.6538 80.25 24.4738 80.646V84.624C24.6538 85.02 24.9238 85.362 25.2838 85.65C25.6558 85.926 26.0398 86.064 26.4358 86.064ZM31.3415 90.402L31.5395 89.25C31.6955 89.334 31.8875 89.376 32.1155 89.376C32.3795 89.376 32.5835 89.31 32.7275 89.178C32.8835 89.058 33.0215 88.836 33.1415 88.512L33.6095 87.18L30.7115 78.306H32.1155L34.2755 85.434L36.4535 78.306H37.8395L34.3655 88.836C34.1615 89.448 33.8795 89.88 33.5195 90.132C33.1715 90.396 32.7335 90.528 32.2055 90.528C31.8575 90.528 31.5695 90.486 31.3415 90.402ZM38.2752 89.214V85.974C38.5632 85.926 38.7912 85.83 38.9592 85.686C39.1272 85.53 39.2832 85.224 39.4272 84.768C39.5712 84.3 39.6852 83.646 39.7692 82.806L40.2012 78.306H45.1332V85.866H46.1232V89.214H44.8452V87H39.5712V89.214H38.2752ZM41.3892 79.44L41.0652 82.932C40.9092 84.408 40.5552 85.386 40.0032 85.866H43.8552V79.44H41.3892ZM49.0305 87H47.7525V78.306H49.0305V81.924H52.4685V78.306H53.7465V87H52.4685V83.058H49.0305V87ZM57.3976 87H56.1196V78.306H57.3976V84.624L60.7816 78.306H62.1136V87H60.8356V80.538L57.3976 87ZM70.9128 87H69.3828L66.9888 83.076L65.7648 84.642V87H64.4868V78.306H65.7648V83.022L69.3828 78.306H70.9128L67.8708 82.212L70.9128 87ZM75.4051 87.216C74.3011 87.216 73.4371 86.778 72.8131 85.902C72.1891 85.026 71.8771 83.94 71.8771 82.644C71.8771 81.36 72.1891 80.28 72.8131 79.404C73.4371 78.528 74.3011 78.09 75.4051 78.09C76.5211 78.09 77.3911 78.528 78.0151 79.404C78.6391 80.268 78.9511 81.348 78.9511 82.644C78.9511 83.94 78.6391 85.026 78.0151 85.902C77.3911 86.778 76.5211 87.216 75.4051 87.216ZM75.4051 86.064C76.1251 86.064 76.6711 85.734 77.0431 85.074C77.4151 84.414 77.6011 83.604 77.6011 82.644C77.6011 81.696 77.4151 80.892 77.0431 80.232C76.6711 79.572 76.1251 79.242 75.4051 79.242C74.6971 79.242 74.1571 79.572 73.7851 80.232C73.4131 80.892 73.2271 81.696 73.2271 82.644C73.2271 83.604 73.4131 84.414 73.7851 85.074C74.1571 85.734 74.6971 86.064 75.4051 86.064ZM84.5592 87H80.8872V78.306H84.4872C85.2432 78.306 85.8312 78.51 86.2512 78.918C86.6832 79.314 86.8992 79.854 86.8992 80.538C86.8992 81.042 86.7732 81.462 86.5212 81.798C86.2812 82.134 85.9512 82.368 85.5312 82.5C85.9752 82.62 86.3412 82.884 86.6292 83.292C86.9172 83.688 87.0612 84.138 87.0612 84.642C87.0612 85.362 86.8452 85.938 86.4132 86.37C85.9932 86.79 85.3752 87 84.5592 87ZM84.3252 85.902C85.2612 85.902 85.7292 85.44 85.7292 84.516C85.7292 84.108 85.6092 83.766 85.3692 83.49C85.1292 83.214 84.7812 83.076 84.3252 83.076H82.1652V85.902H84.3252ZM84.2532 81.996C84.6852 81.996 85.0092 81.876 85.2252 81.636C85.4532 81.396 85.5672 81.084 85.5672 80.7C85.5672 80.316 85.4592 80.004 85.2432 79.764C85.0272 79.512 84.6972 79.386 84.2532 79.386H82.1652V81.996H84.2532ZM96.776 87H93.104V78.306H96.704C97.46 78.306 98.048 78.51 98.468 78.918C98.9 79.314 99.116 79.854 99.116 80.538C99.116 81.042 98.99 81.462 98.738 81.798C98.498 82.134 98.168 82.368 97.748 82.5C98.192 82.62 98.558 82.884 98.846 83.292C99.134 83.688 99.278 84.138 99.278 84.642C99.278 85.362 99.062 85.938 98.63 86.37C98.21 86.79 97.592 87 96.776 87ZM96.542 85.902C97.478 85.902 97.946 85.44 97.946 84.516C97.946 84.108 97.826 83.766 97.586 83.49C97.346 83.214 96.998 83.076 96.542 83.076H94.382V85.902H96.542ZM96.47 81.996C96.902 81.996 97.226 81.876 97.442 81.636C97.67 81.396 97.784 81.084 97.784 80.7C97.784 80.316 97.676 80.004 97.46 79.764C97.244 79.512 96.914 79.386 96.47 79.386H94.382V81.996H96.47ZM106.833 87H105.393V74.994H109.047C110.103 74.994 110.919 75.336 111.495 76.02C112.071 76.704 112.359 77.562 112.359 78.594C112.359 79.614 112.065 80.472 111.477 81.168C110.901 81.852 110.091 82.194 109.047 82.194H106.833V87ZM108.903 80.934C109.515 80.934 109.995 80.718 110.343 80.286C110.703 79.854 110.883 79.29 110.883 78.594C110.883 77.898 110.703 77.334 110.343 76.902C109.995 76.47 109.515 76.254 108.903 76.254H106.833V80.934H108.903ZM116.889 87.216C115.785 87.216 114.921 86.778 114.297 85.902C113.673 85.026 113.361 83.94 113.361 82.644C113.361 81.36 113.673 80.28 114.297 79.404C114.921 78.528 115.785 78.09 116.889 78.09C118.005 78.09 118.875 78.528 119.499 79.404C120.123 80.268 120.435 81.348 120.435 82.644C120.435 83.94 120.123 85.026 119.499 85.902C118.875 86.778 118.005 87.216 116.889 87.216ZM116.889 86.064C117.609 86.064 118.155 85.734 118.527 85.074C118.899 84.414 119.085 83.604 119.085 82.644C119.085 81.696 118.899 80.892 118.527 80.232C118.155 79.572 117.609 79.242 116.889 79.242C116.181 79.242 115.641 79.572 115.269 80.232C114.897 80.892 114.711 81.696 114.711 82.644C114.711 83.604 114.897 84.414 115.269 85.074C115.641 85.734 116.181 86.064 116.889 86.064ZM125.54 87.216C124.448 87.216 123.572 86.784 122.912 85.92C122.264 85.056 121.94 83.964 121.94 82.644C121.94 81.324 122.264 80.238 122.912 79.386C123.572 78.522 124.448 78.09 125.54 78.09C126.572 78.09 127.4 78.474 128.024 79.242L127.322 80.124C126.89 79.536 126.332 79.242 125.648 79.242C124.904 79.242 124.322 79.566 123.902 80.214C123.494 80.862 123.29 81.672 123.29 82.644C123.29 83.616 123.494 84.432 123.902 85.092C124.322 85.74 124.904 86.064 125.648 86.064C126.32 86.064 126.878 85.77 127.322 85.182L128.024 86.064C127.412 86.832 126.584 87.216 125.54 87.216ZM132.852 87.216C131.76 87.216 130.884 86.784 130.224 85.92C129.576 85.056 129.252 83.964 129.252 82.644C129.252 81.324 129.576 80.238 130.224 79.386C130.884 78.522 131.76 78.09 132.852 78.09C133.884 78.09 134.712 78.474 135.336 79.242L134.634 80.124C134.202 79.536 133.644 79.242 132.96 79.242C132.216 79.242 131.634 79.566 131.214 80.214C130.806 80.862 130.602 81.672 130.602 82.644C130.602 83.616 130.806 84.432 131.214 85.092C131.634 85.74 132.216 86.064 132.96 86.064C133.632 86.064 134.19 85.77 134.634 85.182L135.336 86.064C134.724 86.832 133.896 87.216 132.852 87.216ZM138.275 87H136.997V78.306H138.275V84.624L141.659 78.306H142.991V87H141.713V80.538L138.275 87ZM146.642 87H145.364V78.306H146.642V84.624L150.026 78.306H151.358V87H150.08V80.538L146.642 87Z" fill="#444444"/>
</svg>
