<svg width="178" height="160" viewBox="0 0 178 160" fill="none" xmlns="http://www.w3.org/2000/svg">
<circle opacity="0.05" cx="89" cy="55" r="55" fill="black"/>
<g opacity="0.9" clip-path="url(#clip0_1_385)">
<mask id="path-2-outside-1_1_385" maskUnits="userSpaceOnUse" x="58.7967" y="24.7582" width="60.1041" height="60.1041" fill="black">
<rect fill="white" x="58.7967" y="24.7582" width="60.1041" height="60.1041"/>
<path fill-rule="evenodd" clip-rule="evenodd" d="M66.7051 59.935L67.4496 59.1906C68.0326 58.6076 68.7847 58.2945 69.55 58.2547L67.0271 55.7318C66.4037 55.1084 66.0886 54.2859 66.0879 53.4642L66.0869 53.4552L66.0856 53.4539C66.0879 52.6272 66.4003 51.8028 67.0254 51.1777L68.4211 49.782C69.0495 49.1536 69.8749 48.8403 70.699 48.8406C71.5234 48.8392 72.3485 49.1536 72.9762 49.7813L79.8005 56.6056L90.6057 45.8004L83.7824 38.9765C83.156 38.3501 82.8433 37.5267 82.841 36.702L82.8426 36.7003L82.8429 36.6973L82.8423 36.6914C82.8456 35.867 83.1577 35.0462 83.7811 34.4228L85.1789 33.025C85.8066 32.3972 86.631 32.0848 87.4545 32.0858C88.2782 32.0852 89.1039 32.3989 89.7316 33.0266L92.2553 35.5502C92.2967 34.7852 92.6078 34.0317 93.1891 33.4505L93.9335 32.706C94.5613 32.0782 95.385 31.7652 96.2107 31.7652C97.0345 31.7645 97.8589 32.0769 98.4869 32.705L101.719 35.9368L102.48 36.6953L107.305 41.5207L108.063 42.2814L111.297 45.5153C111.922 46.1398 112.236 46.9658 112.236 47.7902L112.237 47.7945C112.236 48.6166 111.922 49.4424 111.296 50.0688L110.551 50.8133C109.97 51.3946 109.217 51.707 108.451 51.7471L110.975 54.2707C111.602 54.8974 111.914 55.7215 111.915 56.5469L111.913 56.5482C111.912 57.3749 111.6 58.1983 110.975 58.8231L109.577 60.2208C108.949 60.8489 108.125 61.162 107.299 61.1623C106.476 61.1623 105.653 60.8489 105.025 60.2209L98.6803 53.8758L87.8759 64.6802L94.221 71.0253C94.8478 71.652 95.1605 72.4754 95.1608 73.3014L95.1591 73.3031C95.1604 74.1275 94.846 74.9526 94.2194 75.5792L92.8236 76.975C92.1969 77.6017 91.3721 77.9158 90.5475 77.9147C89.7244 77.9147 88.8993 77.603 88.2713 76.975L85.7477 74.4513C85.7066 75.218 85.3955 75.9695 84.8125 76.5525L84.068 77.2969C83.4416 77.9234 82.6159 78.2371 81.7935 78.2384C80.9691 78.237 80.1428 77.9233 79.5167 77.2972L76.2828 74.0633L75.5231 73.3031L70.6974 68.4781L69.9376 67.7189L66.7058 64.487C66.0823 63.8636 65.7696 63.0422 65.7669 62.2184L65.7669 62.2131L65.7653 62.2114L65.7669 62.2098C65.7672 61.3837 66.081 60.5592 66.7051 59.935ZM67.7856 51.9358L69.1813 50.5401C69.6005 50.1209 70.1503 49.9133 70.6998 49.9143C71.2506 49.9127 71.8004 50.1222 72.2183 50.5401L93.4611 71.7829C93.8803 72.2021 94.0889 72.7509 94.0902 73.298L94.0885 73.303C94.0895 73.8512 93.8786 74.399 93.4595 74.8182L92.0637 76.2139C91.6462 76.6314 91.0961 76.8413 90.5469 76.8413C89.9968 76.8403 89.4476 76.6347 89.0284 76.2156L67.7856 54.9727C67.3671 54.5542 67.1569 54.0031 67.1598 53.4543L67.1582 53.4526C67.1585 52.9038 67.3668 52.3546 67.7856 51.9358ZM67.4645 60.6938L68.209 59.9493C68.6262 59.5321 69.1766 59.3212 69.7268 59.3229C70.2763 59.3225 70.8264 59.5305 71.2442 59.9483L84.0538 72.7578C84.4706 73.1747 84.6795 73.7238 84.6815 74.2743L84.6799 74.276C84.6795 74.8248 84.4693 75.3753 84.0521 75.7924L83.3076 76.5369C82.8905 76.9541 82.3413 77.163 81.7925 77.1633C81.2404 77.163 80.6912 76.9547 80.2741 76.5375L67.4645 63.728C67.045 63.3085 66.8365 62.759 66.8361 62.2135L66.8368 62.2076C66.8354 61.6598 67.0473 61.1109 67.4645 60.6938ZM93.9497 34.2085L94.6941 33.4641C95.1113 33.0469 95.6615 32.8363 96.212 32.8376C96.7608 32.838 97.3116 33.0452 97.7294 33.463L110.539 46.2726C110.956 46.6894 111.165 47.2386 111.167 47.7891L111.165 47.7907C111.165 48.3396 110.954 48.89 110.537 49.3072L109.793 50.0517C109.375 50.4692 108.825 50.6791 108.276 50.6794C107.726 50.6774 107.177 50.4692 106.76 50.052L93.95 37.2425C93.5305 36.823 93.3203 36.2752 93.3216 35.728L93.3206 35.7237C93.3206 35.1745 93.5318 34.6264 93.9497 34.2085ZM84.5405 35.1809L85.9383 33.7831C86.3554 33.3659 86.9052 33.1583 87.455 33.159C88.0042 33.159 88.5557 33.3669 88.9735 33.7848L106.001 50.8118L110.217 55.0273C110.636 55.4464 110.844 55.9956 110.846 56.5424L110.844 56.5474C110.844 57.0969 110.634 57.644 110.216 58.0612L108.819 59.459C108.401 59.8765 107.851 60.0867 107.302 60.0864C106.752 60.0854 106.202 59.8798 105.783 59.4606L84.5405 38.2178C84.122 37.7993 83.9114 37.2485 83.9131 36.701L83.9131 36.6977C83.9124 36.1498 84.1227 35.5987 84.5405 35.1809ZM80.739 57.1843L86.052 51.8713L91.3651 46.5582L97.922 53.1152L87.296 63.7413L80.739 57.1843Z"/>
</mask>
<path fill-rule="evenodd" clip-rule="evenodd" d="M66.7051 59.935L67.4496 59.1906C68.0326 58.6076 68.7847 58.2945 69.55 58.2547L67.0271 55.7318C66.4037 55.1084 66.0886 54.2859 66.0879 53.4642L66.0869 53.4552L66.0856 53.4539C66.0879 52.6272 66.4003 51.8028 67.0254 51.1777L68.4211 49.782C69.0495 49.1536 69.8749 48.8403 70.699 48.8406C71.5234 48.8392 72.3485 49.1536 72.9762 49.7813L79.8005 56.6056L90.6057 45.8004L83.7824 38.9765C83.156 38.3501 82.8433 37.5267 82.841 36.702L82.8426 36.7003L82.8429 36.6973L82.8423 36.6914C82.8456 35.867 83.1577 35.0462 83.7811 34.4228L85.1789 33.025C85.8066 32.3972 86.631 32.0848 87.4545 32.0858C88.2782 32.0852 89.1039 32.3989 89.7316 33.0266L92.2553 35.5502C92.2967 34.7852 92.6078 34.0317 93.1891 33.4505L93.9335 32.706C94.5613 32.0782 95.385 31.7652 96.2107 31.7652C97.0345 31.7645 97.8589 32.0769 98.4869 32.705L101.719 35.9368L102.48 36.6953L107.305 41.5207L108.063 42.2814L111.297 45.5153C111.922 46.1398 112.236 46.9658 112.236 47.7902L112.237 47.7945C112.236 48.6166 111.922 49.4424 111.296 50.0688L110.551 50.8133C109.97 51.3946 109.217 51.707 108.451 51.7471L110.975 54.2707C111.602 54.8974 111.914 55.7215 111.915 56.5469L111.913 56.5482C111.912 57.3749 111.6 58.1983 110.975 58.8231L109.577 60.2208C108.949 60.8489 108.125 61.162 107.299 61.1623C106.476 61.1623 105.653 60.8489 105.025 60.2209L98.6803 53.8758L87.8759 64.6802L94.221 71.0253C94.8478 71.652 95.1605 72.4754 95.1608 73.3014L95.1591 73.3031C95.1604 74.1275 94.846 74.9526 94.2194 75.5792L92.8236 76.975C92.1969 77.6017 91.3721 77.9158 90.5475 77.9147C89.7244 77.9147 88.8993 77.603 88.2713 76.975L85.7477 74.4513C85.7066 75.218 85.3955 75.9695 84.8125 76.5525L84.068 77.2969C83.4416 77.9234 82.6159 78.2371 81.7935 78.2384C80.9691 78.237 80.1428 77.9233 79.5167 77.2972L76.2828 74.0633L75.5231 73.3031L70.6974 68.4781L69.9376 67.7189L66.7058 64.487C66.0823 63.8636 65.7696 63.0422 65.7669 62.2184L65.7669 62.2131L65.7653 62.2114L65.7669 62.2098C65.7672 61.3837 66.081 60.5592 66.7051 59.935ZM67.7856 51.9358L69.1813 50.5401C69.6005 50.1209 70.1503 49.9133 70.6998 49.9143C71.2506 49.9127 71.8004 50.1222 72.2183 50.5401L93.4611 71.7829C93.8803 72.2021 94.0889 72.7509 94.0902 73.298L94.0885 73.303C94.0895 73.8512 93.8786 74.399 93.4595 74.8182L92.0637 76.2139C91.6462 76.6314 91.0961 76.8413 90.5469 76.8413C89.9968 76.8403 89.4476 76.6347 89.0284 76.2156L67.7856 54.9727C67.3671 54.5542 67.1569 54.0031 67.1598 53.4543L67.1582 53.4526C67.1585 52.9038 67.3668 52.3546 67.7856 51.9358ZM67.4645 60.6938L68.209 59.9493C68.6262 59.5321 69.1766 59.3212 69.7268 59.3229C70.2763 59.3225 70.8264 59.5305 71.2442 59.9483L84.0538 72.7578C84.4706 73.1747 84.6795 73.7238 84.6815 74.2743L84.6799 74.276C84.6795 74.8248 84.4693 75.3753 84.0521 75.7924L83.3076 76.5369C82.8905 76.9541 82.3413 77.163 81.7925 77.1633C81.2404 77.163 80.6912 76.9547 80.2741 76.5375L67.4645 63.728C67.045 63.3085 66.8365 62.759 66.8361 62.2135L66.8368 62.2076C66.8354 61.6598 67.0473 61.1109 67.4645 60.6938ZM93.9497 34.2085L94.6941 33.4641C95.1113 33.0469 95.6615 32.8363 96.212 32.8376C96.7608 32.838 97.3116 33.0452 97.7294 33.463L110.539 46.2726C110.956 46.6894 111.165 47.2386 111.167 47.7891L111.165 47.7907C111.165 48.3396 110.954 48.89 110.537 49.3072L109.793 50.0517C109.375 50.4692 108.825 50.6791 108.276 50.6794C107.726 50.6774 107.177 50.4692 106.76 50.052L93.95 37.2425C93.5305 36.823 93.3203 36.2752 93.3216 35.728L93.3206 35.7237C93.3206 35.1745 93.5318 34.6264 93.9497 34.2085ZM84.5405 35.1809L85.9383 33.7831C86.3554 33.3659 86.9052 33.1583 87.455 33.159C88.0042 33.159 88.5557 33.3669 88.9735 33.7848L106.001 50.8118L110.217 55.0273C110.636 55.4464 110.844 55.9956 110.846 56.5424L110.844 56.5474C110.844 57.0969 110.634 57.644 110.216 58.0612L108.819 59.459C108.401 59.8765 107.851 60.0867 107.302 60.0864C106.752 60.0854 106.202 59.8798 105.783 59.4606L84.5405 38.2178C84.122 37.7993 83.9114 37.2485 83.9131 36.701L83.9131 36.6977C83.9124 36.1498 84.1227 35.5987 84.5405 35.1809ZM80.739 57.1843L86.052 51.8713L91.3651 46.5582L97.922 53.1152L87.296 63.7413L80.739 57.1843Z" fill="#B01736"/>
<path fill-rule="evenodd" clip-rule="evenodd" d="M66.7051 59.935L67.4496 59.1906C68.0326 58.6076 68.7847 58.2945 69.55 58.2547L67.0271 55.7318C66.4037 55.1084 66.0886 54.2859 66.0879 53.4642L66.0869 53.4552L66.0856 53.4539C66.0879 52.6272 66.4003 51.8028 67.0254 51.1777L68.4211 49.782C69.0495 49.1536 69.8749 48.8403 70.699 48.8406C71.5234 48.8392 72.3485 49.1536 72.9762 49.7813L79.8005 56.6056L90.6057 45.8004L83.7824 38.9765C83.156 38.3501 82.8433 37.5267 82.841 36.702L82.8426 36.7003L82.8429 36.6973L82.8423 36.6914C82.8456 35.867 83.1577 35.0462 83.7811 34.4228L85.1789 33.025C85.8066 32.3972 86.631 32.0848 87.4545 32.0858C88.2782 32.0852 89.1039 32.3989 89.7316 33.0266L92.2553 35.5502C92.2967 34.7852 92.6078 34.0317 93.1891 33.4505L93.9335 32.706C94.5613 32.0782 95.385 31.7652 96.2107 31.7652C97.0345 31.7645 97.8589 32.0769 98.4869 32.705L101.719 35.9368L102.48 36.6953L107.305 41.5207L108.063 42.2814L111.297 45.5153C111.922 46.1398 112.236 46.9658 112.236 47.7902L112.237 47.7945C112.236 48.6166 111.922 49.4424 111.296 50.0688L110.551 50.8133C109.97 51.3946 109.217 51.707 108.451 51.7471L110.975 54.2707C111.602 54.8974 111.914 55.7215 111.915 56.5469L111.913 56.5482C111.912 57.3749 111.6 58.1983 110.975 58.8231L109.577 60.2208C108.949 60.8489 108.125 61.162 107.299 61.1623C106.476 61.1623 105.653 60.8489 105.025 60.2209L98.6803 53.8758L87.8759 64.6802L94.221 71.0253C94.8478 71.652 95.1605 72.4754 95.1608 73.3014L95.1591 73.3031C95.1604 74.1275 94.846 74.9526 94.2194 75.5792L92.8236 76.975C92.1969 77.6017 91.3721 77.9158 90.5475 77.9147C89.7244 77.9147 88.8993 77.603 88.2713 76.975L85.7477 74.4513C85.7066 75.218 85.3955 75.9695 84.8125 76.5525L84.068 77.2969C83.4416 77.9234 82.6159 78.2371 81.7935 78.2384C80.9691 78.237 80.1428 77.9233 79.5167 77.2972L76.2828 74.0633L75.5231 73.3031L70.6974 68.4781L69.9376 67.7189L66.7058 64.487C66.0823 63.8636 65.7696 63.0422 65.7669 62.2184L65.7669 62.2131L65.7653 62.2114L65.7669 62.2098C65.7672 61.3837 66.081 60.5592 66.7051 59.935ZM67.7856 51.9358L69.1813 50.5401C69.6005 50.1209 70.1503 49.9133 70.6998 49.9143C71.2506 49.9127 71.8004 50.1222 72.2183 50.5401L93.4611 71.7829C93.8803 72.2021 94.0889 72.7509 94.0902 73.298L94.0885 73.303C94.0895 73.8512 93.8786 74.399 93.4595 74.8182L92.0637 76.2139C91.6462 76.6314 91.0961 76.8413 90.5469 76.8413C89.9968 76.8403 89.4476 76.6347 89.0284 76.2156L67.7856 54.9727C67.3671 54.5542 67.1569 54.0031 67.1598 53.4543L67.1582 53.4526C67.1585 52.9038 67.3668 52.3546 67.7856 51.9358ZM67.4645 60.6938L68.209 59.9493C68.6262 59.5321 69.1766 59.3212 69.7268 59.3229C70.2763 59.3225 70.8264 59.5305 71.2442 59.9483L84.0538 72.7578C84.4706 73.1747 84.6795 73.7238 84.6815 74.2743L84.6799 74.276C84.6795 74.8248 84.4693 75.3753 84.0521 75.7924L83.3076 76.5369C82.8905 76.9541 82.3413 77.163 81.7925 77.1633C81.2404 77.163 80.6912 76.9547 80.2741 76.5375L67.4645 63.728C67.045 63.3085 66.8365 62.759 66.8361 62.2135L66.8368 62.2076C66.8354 61.6598 67.0473 61.1109 67.4645 60.6938ZM93.9497 34.2085L94.6941 33.4641C95.1113 33.0469 95.6615 32.8363 96.212 32.8376C96.7608 32.838 97.3116 33.0452 97.7294 33.463L110.539 46.2726C110.956 46.6894 111.165 47.2386 111.167 47.7891L111.165 47.7907C111.165 48.3396 110.954 48.89 110.537 49.3072L109.793 50.0517C109.375 50.4692 108.825 50.6791 108.276 50.6794C107.726 50.6774 107.177 50.4692 106.76 50.052L93.95 37.2425C93.5305 36.823 93.3203 36.2752 93.3216 35.728L93.3206 35.7237C93.3206 35.1745 93.5318 34.6264 93.9497 34.2085ZM84.5405 35.1809L85.9383 33.7831C86.3554 33.3659 86.9052 33.1583 87.455 33.159C88.0042 33.159 88.5557 33.3669 88.9735 33.7848L106.001 50.8118L110.217 55.0273C110.636 55.4464 110.844 55.9956 110.846 56.5424L110.844 56.5474C110.844 57.0969 110.634 57.644 110.216 58.0612L108.819 59.459C108.401 59.8765 107.851 60.0867 107.302 60.0864C106.752 60.0854 106.202 59.8798 105.783 59.4606L84.5405 38.2178C84.122 37.7993 83.9114 37.2485 83.9131 36.701L83.9131 36.6977C83.9124 36.1498 84.1227 35.5987 84.5405 35.1809ZM80.739 57.1843L86.052 51.8713L91.3651 46.5582L97.922 53.1152L87.296 63.7413L80.739 57.1843Z" stroke="#B01736" stroke-width="0.8" mask="url(#path-2-outside-1_1_385)"/>
</g>
<path d="M16.7434 136H15.0154L11.5054 130.708L10.5154 132.148V136H9.07543V123.994H10.5154V130.222L14.7094 123.994H16.4014L12.3874 129.7L16.7434 136ZM20.6776 136.216C19.5736 136.216 18.7096 135.778 18.0856 134.902C17.4616 134.026 17.1496 132.94 17.1496 131.644C17.1496 130.36 17.4616 129.28 18.0856 128.404C18.7096 127.528 19.5736 127.09 20.6776 127.09C21.7936 127.09 22.6636 127.528 23.2876 128.404C23.9116 129.268 24.2236 130.348 24.2236 131.644C24.2236 132.94 23.9116 134.026 23.2876 134.902C22.6636 135.778 21.7936 136.216 20.6776 136.216ZM20.6776 135.064C21.3976 135.064 21.9436 134.734 22.3156 134.074C22.6876 133.414 22.8736 132.604 22.8736 131.644C22.8736 130.696 22.6876 129.892 22.3156 129.232C21.9436 128.572 21.3976 128.242 20.6776 128.242C19.9696 128.242 19.4296 128.572 19.0576 129.232C18.6856 129.892 18.4996 130.696 18.4996 131.644C18.4996 132.604 18.6856 133.414 19.0576 134.074C19.4296 134.734 19.9696 135.064 20.6776 135.064ZM32.0097 134.974C31.4577 135.802 30.6957 136.216 29.7237 136.216C28.7517 136.216 27.9897 135.724 27.4377 134.74V139.312H26.1597V127.306H27.4377V128.548C27.6897 128.104 28.0197 127.75 28.4277 127.486C28.8357 127.222 29.2677 127.09 29.7237 127.09C30.6957 127.09 31.4577 127.504 32.0097 128.332C32.5617 129.16 32.8377 130.264 32.8377 131.644C32.8377 133.024 32.5617 134.134 32.0097 134.974ZM29.3997 135.064C30.0837 135.064 30.5997 134.746 30.9477 134.11C31.3077 133.462 31.4877 132.64 31.4877 131.644C31.4877 130.648 31.3077 129.832 30.9477 129.196C30.5997 128.56 30.0837 128.242 29.3997 128.242C29.0037 128.242 28.6197 128.38 28.2477 128.656C27.8877 128.92 27.6177 129.25 27.4377 129.646V133.624C27.6177 134.02 27.8877 134.362 28.2477 134.65C28.6197 134.926 29.0037 135.064 29.3997 135.064ZM40.7494 136H39.4714V128.44H36.0334V136H34.7554V127.306H40.7494V136ZM46.2186 136.216C45.1146 136.216 44.2506 135.778 43.6266 134.902C43.0026 134.026 42.6906 132.94 42.6906 131.644C42.6906 130.36 43.0026 129.28 43.6266 128.404C44.2506 127.528 45.1146 127.09 46.2186 127.09C47.3346 127.09 48.2046 127.528 48.8286 128.404C49.4526 129.268 49.7646 130.348 49.7646 131.644C49.7646 132.94 49.4526 134.026 48.8286 134.902C48.2046 135.778 47.3346 136.216 46.2186 136.216ZM46.2186 135.064C46.9386 135.064 47.4846 134.734 47.8566 134.074C48.2286 133.414 48.4146 132.604 48.4146 131.644C48.4146 130.696 48.2286 129.892 47.8566 129.232C47.4846 128.572 46.9386 128.242 46.2186 128.242C45.5106 128.242 44.9706 128.572 44.5986 129.232C44.2266 129.892 44.0406 130.696 44.0406 131.644C44.0406 132.604 44.2266 133.414 44.5986 134.074C44.9706 134.734 45.5106 135.064 46.2186 135.064ZM57.5507 134.974C56.9987 135.802 56.2367 136.216 55.2647 136.216C54.2927 136.216 53.5307 135.724 52.9787 134.74V139.312H51.7007V127.306H52.9787V128.548C53.2307 128.104 53.5607 127.75 53.9687 127.486C54.3767 127.222 54.8087 127.09 55.2647 127.09C56.2367 127.09 56.9987 127.504 57.5507 128.332C58.1027 129.16 58.3787 130.264 58.3787 131.644C58.3787 133.024 58.1027 134.134 57.5507 134.974ZM54.9407 135.064C55.6247 135.064 56.1407 134.746 56.4887 134.11C56.8487 133.462 57.0287 132.64 57.0287 131.644C57.0287 130.648 56.8487 129.832 56.4887 129.196C56.1407 128.56 55.6247 128.242 54.9407 128.242C54.5447 128.242 54.1607 128.38 53.7887 128.656C53.4287 128.92 53.1587 129.25 52.9787 129.646V133.624C53.1587 134.02 53.4287 134.362 53.7887 134.65C54.1607 134.926 54.5447 135.064 54.9407 135.064ZM66.0564 136H64.7604V135.064C64.2204 135.832 63.4584 136.216 62.4744 136.216C61.7424 136.216 61.1184 135.952 60.6024 135.424C60.0984 134.896 59.8464 134.194 59.8464 133.318C59.8464 132.442 60.0984 131.746 60.6024 131.23C61.1064 130.714 61.7304 130.456 62.4744 130.456C63.4824 130.456 64.2444 130.828 64.7604 131.572V130.06C64.7604 129.472 64.6044 129.016 64.2924 128.692C63.9804 128.368 63.5424 128.206 62.9784 128.206C62.1504 128.206 61.4244 128.56 60.8004 129.268L60.2244 128.35C61.0284 127.51 62.0124 127.09 63.1764 127.09C64.0764 127.09 64.7784 127.324 65.2824 127.792C65.7984 128.248 66.0564 128.956 66.0564 129.916V136ZM62.8884 135.28C63.7284 135.28 64.3524 134.914 64.7604 134.182V132.526C64.3644 131.782 63.7404 131.41 62.8884 131.41C62.3604 131.41 61.9404 131.596 61.6284 131.968C61.3164 132.328 61.1604 132.784 61.1604 133.336C61.1604 133.888 61.3164 134.35 61.6284 134.722C61.9404 135.094 62.3604 135.28 62.8884 135.28ZM70.9375 136H69.6415V128.44H67.6435V127.306H72.9355V128.44H70.9375V136ZM75.8127 136H74.5347V127.306H75.8127V133.624L79.1967 127.306H80.5287V136H79.2507V129.538L75.8127 136ZM86.5739 136H82.9019V127.306H86.5019C87.2579 127.306 87.8459 127.51 88.2659 127.918C88.6979 128.314 88.9139 128.854 88.9139 129.538C88.9139 130.042 88.7879 130.462 88.5359 130.798C88.2959 131.134 87.9659 131.368 87.5459 131.5C87.9899 131.62 88.3559 131.884 88.6439 132.292C88.9319 132.688 89.0759 133.138 89.0759 133.642C89.0759 134.362 88.8599 134.938 88.4279 135.37C88.0079 135.79 87.3899 136 86.5739 136ZM86.3399 134.902C87.2759 134.902 87.7439 134.44 87.7439 133.516C87.7439 133.108 87.6239 132.766 87.3839 132.49C87.1439 132.214 86.7959 132.076 86.3399 132.076H84.1799V134.902H86.3399ZM86.2679 130.996C86.6999 130.996 87.0239 130.876 87.2399 130.636C87.4679 130.396 87.5819 130.084 87.5819 129.7C87.5819 129.316 87.4739 129.004 87.2579 128.764C87.0419 128.512 86.7119 128.386 86.2679 128.386H84.1799V130.996H86.2679ZM92.5295 136H91.2515V127.306H92.5295V130.924H95.9675V127.306H97.2455V136H95.9675V132.058H92.5295V136ZM99.6187 127.306H100.897V130.708H103.021C103.885 130.708 104.545 130.96 105.001 131.464C105.469 131.968 105.703 132.598 105.703 133.354C105.703 134.11 105.469 134.74 105.001 135.244C104.545 135.748 103.885 136 103.021 136H99.6187V127.306ZM102.895 131.806H100.897V134.902H102.895C103.363 134.902 103.723 134.764 103.975 134.488C104.239 134.2 104.371 133.822 104.371 133.354C104.371 132.886 104.245 132.514 103.993 132.238C103.741 131.95 103.375 131.806 102.895 131.806ZM108.259 136H106.981V127.306H108.259V136ZM113.934 136.216C112.794 136.216 111.888 135.796 111.216 134.956C110.544 134.104 110.208 133 110.208 131.644C110.208 130.348 110.526 129.268 111.162 128.404C111.81 127.528 112.668 127.09 113.736 127.09C114.84 127.09 115.686 127.522 116.274 128.386C116.874 129.25 117.174 130.348 117.174 131.68V132.076H111.54C111.564 132.976 111.798 133.714 112.242 134.29C112.686 134.854 113.286 135.136 114.042 135.136C114.858 135.136 115.548 134.782 116.112 134.074L116.796 134.83C116.04 135.754 115.086 136.216 113.934 136.216ZM115.896 131.122C115.884 130.342 115.698 129.658 115.338 129.07C114.978 128.47 114.438 128.17 113.718 128.17C113.022 128.17 112.488 128.476 112.116 129.088C111.756 129.688 111.564 130.366 111.54 131.122H115.896ZM126.095 136.216C125.003 136.216 124.127 135.784 123.467 134.92C122.819 134.056 122.495 132.964 122.495 131.644C122.495 130.324 122.819 129.238 123.467 128.386C124.127 127.522 125.003 127.09 126.095 127.09C127.127 127.09 127.955 127.474 128.579 128.242L127.877 129.124C127.445 128.536 126.887 128.242 126.203 128.242C125.459 128.242 124.877 128.566 124.457 129.214C124.049 129.862 123.845 130.672 123.845 131.644C123.845 132.616 124.049 133.432 124.457 134.092C124.877 134.74 125.459 135.064 126.203 135.064C126.875 135.064 127.433 134.77 127.877 134.182L128.579 135.064C127.967 135.832 127.139 136.216 126.095 136.216ZM136.666 136H135.136L132.742 132.076L131.518 133.642V136H130.24V127.306H131.518V132.022L135.136 127.306H136.666L133.624 131.212L136.666 136ZM139.41 136H138.132V127.306H139.41V133.624L142.794 127.306H144.126V136H142.848V129.538L139.41 136ZM145.636 138.214V134.974C145.924 134.926 146.152 134.83 146.32 134.686C146.488 134.53 146.644 134.224 146.788 133.768C146.932 133.3 147.046 132.646 147.13 131.806L147.562 127.306H152.494V134.866H153.484V138.214H152.206V136H146.932V138.214H145.636ZM148.75 128.44L148.426 131.932C148.27 133.408 147.916 134.386 147.364 134.866H151.216V128.44H148.75ZM161.539 136H160.009L157.615 132.076L156.391 133.642V136H155.113V127.306H156.391V132.022L160.009 127.306H161.539L158.497 131.212L161.539 136ZM164.283 136H163.005V127.306H164.283V133.624L167.667 127.306H168.999V136H167.721V129.538L164.283 136ZM61.8029 156H60.5249V147.306H61.8029V150.924H65.2409V147.306H66.5189V156H65.2409V152.058H61.8029V156ZM74.6521 156H73.3561V155.064C72.8161 155.832 72.0541 156.216 71.0701 156.216C70.3381 156.216 69.7141 155.952 69.1981 155.424C68.6941 154.896 68.4421 154.194 68.4421 153.318C68.4421 152.442 68.6941 151.746 69.1981 151.23C69.7021 150.714 70.3261 150.456 71.0701 150.456C72.0781 150.456 72.8401 150.828 73.3561 151.572V150.06C73.3561 149.472 73.2001 149.016 72.8881 148.692C72.5761 148.368 72.1381 148.206 71.5741 148.206C70.7461 148.206 70.0201 148.56 69.3961 149.268L68.8201 148.35C69.6241 147.51 70.6081 147.09 71.7721 147.09C72.6721 147.09 73.3741 147.324 73.8781 147.792C74.3941 148.248 74.6521 148.956 74.6521 149.916V156ZM71.4841 155.28C72.3241 155.28 72.9481 154.914 73.3561 154.182V152.526C72.9601 151.782 72.3361 151.41 71.4841 151.41C70.9561 151.41 70.5361 151.596 70.2241 151.968C69.9121 152.328 69.7561 152.784 69.7561 153.336C69.7561 153.888 69.9121 154.35 70.2241 154.722C70.5361 155.094 70.9561 155.28 71.4841 155.28ZM84.0484 156.216C82.9564 156.216 82.0804 155.784 81.4204 154.92C80.7724 154.056 80.4484 152.964 80.4484 151.644C80.4484 150.324 80.7724 149.238 81.4204 148.386C82.0804 147.522 82.9564 147.09 84.0484 147.09C85.0804 147.09 85.9084 147.474 86.5324 148.242L85.8304 149.124C85.3984 148.536 84.8404 148.242 84.1564 148.242C83.4124 148.242 82.8304 148.566 82.4104 149.214C82.0024 149.862 81.7984 150.672 81.7984 151.644C81.7984 152.616 82.0024 153.432 82.4104 154.092C82.8304 154.74 83.4124 155.064 84.1564 155.064C84.8284 155.064 85.3864 154.77 85.8304 154.182L86.5324 155.064C85.9204 155.832 85.0924 156.216 84.0484 156.216ZM94.1869 156H92.9089V148.44H89.4709V156H88.1929V147.306H94.1869V156ZM99.6561 156.216C98.5521 156.216 97.6881 155.778 97.0641 154.902C96.4401 154.026 96.1281 152.94 96.1281 151.644C96.1281 150.36 96.4401 149.28 97.0641 148.404C97.6881 147.528 98.5521 147.09 99.6561 147.09C100.772 147.09 101.642 147.528 102.266 148.404C102.89 149.268 103.202 150.348 103.202 151.644C103.202 152.94 102.89 154.026 102.266 154.902C101.642 155.778 100.772 156.216 99.6561 156.216ZM99.6561 155.064C100.376 155.064 100.922 154.734 101.294 154.074C101.666 153.414 101.852 152.604 101.852 151.644C101.852 150.696 101.666 149.892 101.294 149.232C100.922 148.572 100.376 148.242 99.6561 148.242C98.9481 148.242 98.4081 148.572 98.0361 149.232C97.6641 149.892 97.4781 150.696 97.4781 151.644C97.4781 152.604 97.6641 153.414 98.0361 154.074C98.4081 154.734 98.9481 155.064 99.6561 155.064ZM110.988 154.974C110.436 155.802 109.674 156.216 108.702 156.216C107.73 156.216 106.968 155.724 106.416 154.74V159.312H105.138V147.306H106.416V148.548C106.668 148.104 106.998 147.75 107.406 147.486C107.814 147.222 108.246 147.09 108.702 147.09C109.674 147.09 110.436 147.504 110.988 148.332C111.54 149.16 111.816 150.264 111.816 151.644C111.816 153.024 111.54 154.134 110.988 154.974ZM108.378 155.064C109.062 155.064 109.578 154.746 109.926 154.11C110.286 153.462 110.466 152.64 110.466 151.644C110.466 150.648 110.286 149.832 109.926 149.196C109.578 148.56 109.062 148.242 108.378 148.242C107.982 148.242 107.598 148.38 107.226 148.656C106.866 148.92 106.596 149.25 106.416 149.646V153.624C106.596 154.02 106.866 154.362 107.226 154.65C107.598 154.926 107.982 155.064 108.378 155.064ZM116.254 156H114.958V148.44H112.96V147.306H118.252V148.44H116.254V156Z" fill="#444444"/>
<defs>
<clipPath id="clip0_1_385">
<rect width="48" height="48" fill="white" transform="translate(65 31)"/>
</clipPath>
</defs>
</svg>
