<svg width="100" height="140" viewBox="0 0 111 140" fill="none" xmlns="http://www.w3.org/2000/svg">
<circle opacity="0.05" cx="55.9984" cy="55" r="55" fill="black"/>
<g clip-path="url(#clip0_1_401)">
<path d="M68.7218 43.7466V32H43.275V43.7466M41.319 69.418L32.9984 69.4253V49.6117C32.9984 46.3726 35.6275 43.7467 38.8708 43.7467H73.1261C76.3693 43.7467 78.9984 46.3726 78.9984 49.6117V69.4253L70.6807 69.418M41.319 60.8361H70.6807V78H41.319V60.8361Z" stroke="#B01736" stroke-width="2"/>
</g>
<path d="M24.2104 134.47C23.4064 135.634 22.2964 136.216 20.8804 136.216C19.4644 136.216 18.3544 135.634 17.5504 134.47C16.7464 133.294 16.3444 131.806 16.3444 130.006C16.3444 128.206 16.7464 126.724 17.5504 125.56C18.3544 124.384 19.4644 123.796 20.8804 123.796C22.2964 123.796 23.4064 124.384 24.2104 125.56C25.0264 126.724 25.4344 128.206 25.4344 130.006C25.4344 131.806 25.0264 133.294 24.2104 134.47ZM18.6304 133.552C19.1704 134.476 19.9204 134.938 20.8804 134.938C21.8404 134.938 22.5904 134.476 23.1304 133.552C23.6824 132.616 23.9584 131.434 23.9584 130.006C23.9584 128.566 23.6884 127.384 23.1484 126.46C22.6084 125.536 21.8524 125.074 20.8804 125.074C19.9204 125.074 19.1704 125.536 18.6304 126.46C18.0904 127.384 17.8204 128.566 17.8204 130.006C17.8204 131.434 18.0904 132.616 18.6304 133.552ZM33.3118 134.974C32.7598 135.802 31.9978 136.216 31.0258 136.216C30.0538 136.216 29.2918 135.724 28.7398 134.74V139.312H27.4618V127.306H28.7398V128.548C28.9918 128.104 29.3218 127.75 29.7298 127.486C30.1378 127.222 30.5698 127.09 31.0258 127.09C31.9978 127.09 32.7598 127.504 33.3118 128.332C33.8638 129.16 34.1398 130.264 34.1398 131.644C34.1398 133.024 33.8638 134.134 33.3118 134.974ZM30.7018 135.064C31.3858 135.064 31.9018 134.746 32.2498 134.11C32.6098 133.462 32.7898 132.64 32.7898 131.644C32.7898 130.648 32.6098 129.832 32.2498 129.196C31.9018 128.56 31.3858 128.242 30.7018 128.242C30.3058 128.242 29.9218 128.38 29.5498 128.656C29.1898 128.92 28.9198 129.25 28.7398 129.646V133.624C28.9198 134.02 29.1898 134.362 29.5498 134.65C29.9218 134.926 30.3058 135.064 30.7018 135.064ZM41.0075 127.306V128.44H37.3355V136H36.0575V127.306H41.0075ZM45.1341 136H43.8381V128.44H41.8401V127.306H47.1321V128.44H45.1341V136ZM52.0253 136.216C50.8853 136.216 49.9793 135.796 49.3073 134.956C48.6353 134.104 48.2993 133 48.2993 131.644C48.2993 130.348 48.6173 129.268 49.2533 128.404C49.9013 127.528 50.7593 127.09 51.8273 127.09C52.9313 127.09 53.7773 127.522 54.3653 128.386C54.9653 129.25 55.2653 130.348 55.2653 131.68V132.076H49.6313C49.6553 132.976 49.8893 133.714 50.3333 134.29C50.7773 134.854 51.3773 135.136 52.1333 135.136C52.9493 135.136 53.6393 134.782 54.2033 134.074L54.8873 134.83C54.1313 135.754 53.1773 136.216 52.0253 136.216ZM53.9873 131.122C53.9753 130.342 53.7893 129.658 53.4293 129.07C53.0693 128.47 52.5293 128.17 51.8093 128.17C51.1133 128.17 50.5793 128.476 50.2073 129.088C49.8473 129.688 49.6553 130.366 49.6313 131.122H53.9873ZM63.0553 136H61.6153L59.6173 132.508L57.6193 136H56.1793L58.8253 131.572L56.3233 127.306H57.7633L59.6173 130.618L61.4713 127.306H62.9113L60.4093 131.572L63.0553 136ZM65.7418 136H64.4638V127.306H65.7418V130.924H69.1798V127.306H70.4578V136H69.1798V132.058H65.7418V136ZM74.1089 136H72.8309V127.306H74.1089V133.624L77.4929 127.306H78.8249V136H77.5469V129.538L74.1089 136ZM87.6241 136H86.0941L83.7001 132.076L82.4761 133.642V136H81.1981V127.306H82.4761V132.022L86.0941 127.306H87.6241L84.5821 131.212L87.6241 136ZM90.3687 136H89.0907V127.306H90.3687V133.624L93.7527 127.306H95.0847V136H93.8067V129.538L90.3687 136Z" fill="#444444"/>
<defs>
<clipPath id="clip0_1_401">
<rect width="48" height="48" fill="white" transform="translate(31.9984 31)"/>
</clipPath>
</defs>
</svg>
