<svg width="178" height="160" viewBox="0 0 178 160" fill="none" xmlns="http://www.w3.org/2000/svg">
<circle opacity="0.05" cx="89" cy="55" r="55" fill="black"/>
<g opacity="0.9" clip-path="url(#clip0_1_377)">
<rect x="73.1992" y="32" width="31.6" height="46" rx="4" stroke="#B01736" stroke-width="2"/>
<path d="M80.3984 32H97.5984V36C97.5984 37.1046 96.703 38 95.5984 38H82.3984C81.2939 38 80.3984 37.1046 80.3984 36V32Z" stroke="#B01736" stroke-width="2"/>
<path d="M84.1992 71H93.7992" stroke="#B01736" stroke-width="2" stroke-linecap="round"/>
</g>
<path d="M44.3938 136H42.6658L39.1558 130.708L38.1658 132.148V136H36.7258V123.994H38.1658V130.222L42.3598 123.994H44.0518L40.0378 129.7L44.3938 136ZM48.3279 136.216C47.2239 136.216 46.3599 135.778 45.7359 134.902C45.1119 134.026 44.7999 132.94 44.7999 131.644C44.7999 130.36 45.1119 129.28 45.7359 128.404C46.3599 127.528 47.2239 127.09 48.3279 127.09C49.4439 127.09 50.3139 127.528 50.9379 128.404C51.5619 129.268 51.8739 130.348 51.8739 131.644C51.8739 132.94 51.5619 134.026 50.9379 134.902C50.3139 135.778 49.4439 136.216 48.3279 136.216ZM48.3279 135.064C49.0479 135.064 49.5939 134.734 49.9659 134.074C50.3379 133.414 50.5239 132.604 50.5239 131.644C50.5239 130.696 50.3379 129.892 49.9659 129.232C49.5939 128.572 49.0479 128.242 48.3279 128.242C47.6199 128.242 47.0799 128.572 46.7079 129.232C46.3359 129.892 46.1499 130.696 46.1499 131.644C46.1499 132.604 46.3359 133.414 46.7079 134.074C47.0799 134.734 47.6199 135.064 48.3279 135.064ZM59.6601 134.974C59.1081 135.802 58.3461 136.216 57.3741 136.216C56.4021 136.216 55.6401 135.724 55.0881 134.74V139.312H53.8101V127.306H55.0881V128.548C55.3401 128.104 55.6701 127.75 56.0781 127.486C56.4861 127.222 56.9181 127.09 57.3741 127.09C58.3461 127.09 59.1081 127.504 59.6601 128.332C60.2121 129.16 60.4881 130.264 60.4881 131.644C60.4881 133.024 60.2121 134.134 59.6601 134.974ZM57.0501 135.064C57.7341 135.064 58.2501 134.746 58.5981 134.11C58.9581 133.462 59.1381 132.64 59.1381 131.644C59.1381 130.648 58.9581 129.832 58.5981 129.196C58.2501 128.56 57.7341 128.242 57.0501 128.242C56.6541 128.242 56.2701 128.38 55.8981 128.656C55.5381 128.92 55.2681 129.25 55.0881 129.646V133.624C55.2681 134.02 55.5381 134.362 55.8981 134.65C56.2701 134.926 56.6541 135.064 57.0501 135.064ZM68.3998 136H67.1218V128.44H63.6838V136H62.4058V127.306H68.3998V136ZM73.869 136.216C72.765 136.216 71.901 135.778 71.277 134.902C70.653 134.026 70.341 132.94 70.341 131.644C70.341 130.36 70.653 129.28 71.277 128.404C71.901 127.528 72.765 127.09 73.869 127.09C74.985 127.09 75.855 127.528 76.479 128.404C77.103 129.268 77.415 130.348 77.415 131.644C77.415 132.94 77.103 134.026 76.479 134.902C75.855 135.778 74.985 136.216 73.869 136.216ZM73.869 135.064C74.589 135.064 75.135 134.734 75.507 134.074C75.879 133.414 76.065 132.604 76.065 131.644C76.065 130.696 75.879 129.892 75.507 129.232C75.135 128.572 74.589 128.242 73.869 128.242C73.161 128.242 72.621 128.572 72.249 129.232C71.877 129.892 71.691 130.696 71.691 131.644C71.691 132.604 71.877 133.414 72.249 134.074C72.621 134.734 73.161 135.064 73.869 135.064ZM85.2011 134.974C84.6491 135.802 83.8871 136.216 82.9151 136.216C81.9431 136.216 81.1811 135.724 80.6291 134.74V139.312H79.3511V127.306H80.6291V128.548C80.8811 128.104 81.2111 127.75 81.6191 127.486C82.0271 127.222 82.4591 127.09 82.9151 127.09C83.8871 127.09 84.6491 127.504 85.2011 128.332C85.7531 129.16 86.0291 130.264 86.0291 131.644C86.0291 133.024 85.7531 134.134 85.2011 134.974ZM82.5911 135.064C83.2751 135.064 83.7911 134.746 84.1391 134.11C84.4991 133.462 84.6791 132.64 84.6791 131.644C84.6791 130.648 84.4991 129.832 84.1391 129.196C83.7911 128.56 83.2751 128.242 82.5911 128.242C82.1951 128.242 81.8111 128.38 81.4391 128.656C81.0791 128.92 80.8091 129.25 80.6291 129.646V133.624C80.8091 134.02 81.0791 134.362 81.4391 134.65C81.8111 134.926 82.1951 135.064 82.5911 135.064ZM93.7068 136H92.4108V135.064C91.8708 135.832 91.1088 136.216 90.1248 136.216C89.3928 136.216 88.7688 135.952 88.2528 135.424C87.7488 134.896 87.4968 134.194 87.4968 133.318C87.4968 132.442 87.7488 131.746 88.2528 131.23C88.7568 130.714 89.3808 130.456 90.1248 130.456C91.1328 130.456 91.8948 130.828 92.4108 131.572V130.06C92.4108 129.472 92.2548 129.016 91.9428 128.692C91.6308 128.368 91.1928 128.206 90.6288 128.206C89.8008 128.206 89.0748 128.56 88.4508 129.268L87.8748 128.35C88.6788 127.51 89.6628 127.09 90.8268 127.09C91.7268 127.09 92.4288 127.324 92.9328 127.792C93.4488 128.248 93.7068 128.956 93.7068 129.916V136ZM90.5388 135.28C91.3788 135.28 92.0028 134.914 92.4108 134.182V132.526C92.0148 131.782 91.3908 131.41 90.5388 131.41C90.0108 131.41 89.5908 131.596 89.2788 131.968C88.9668 132.328 88.8108 132.784 88.8108 133.336C88.8108 133.888 88.9668 134.35 89.2788 134.722C89.5908 135.094 90.0108 135.28 90.5388 135.28ZM98.5879 136H97.2919V128.44H95.2939V127.306H100.586V128.44H98.5879V136ZM103.463 136H102.185V127.306H103.463V133.624L106.847 127.306H108.179V136H106.901V129.538L103.463 136ZM114.224 136H110.552V127.306H114.152C114.908 127.306 115.496 127.51 115.916 127.918C116.348 128.314 116.564 128.854 116.564 129.538C116.564 130.042 116.438 130.462 116.186 130.798C115.946 131.134 115.616 131.368 115.196 131.5C115.64 131.62 116.006 131.884 116.294 132.292C116.582 132.688 116.726 133.138 116.726 133.642C116.726 134.362 116.51 134.938 116.078 135.37C115.658 135.79 115.04 136 114.224 136ZM113.99 134.902C114.926 134.902 115.394 134.44 115.394 133.516C115.394 133.108 115.274 132.766 115.034 132.49C114.794 132.214 114.446 132.076 113.99 132.076H111.83V134.902H113.99ZM113.918 130.996C114.35 130.996 114.674 130.876 114.89 130.636C115.118 130.396 115.232 130.084 115.232 129.7C115.232 129.316 115.124 129.004 114.908 128.764C114.692 128.512 114.362 128.386 113.918 128.386H111.83V130.996H113.918ZM120.18 136H118.902V127.306H120.18V130.924H123.618V127.306H124.896V136H123.618V132.058H120.18V136ZM133.029 136H131.733V135.064C131.193 135.832 130.431 136.216 129.447 136.216C128.715 136.216 128.091 135.952 127.575 135.424C127.071 134.896 126.819 134.194 126.819 133.318C126.819 132.442 127.071 131.746 127.575 131.23C128.079 130.714 128.703 130.456 129.447 130.456C130.455 130.456 131.217 130.828 131.733 131.572V130.06C131.733 129.472 131.577 129.016 131.265 128.692C130.953 128.368 130.515 128.206 129.951 128.206C129.123 128.206 128.397 128.56 127.773 129.268L127.197 128.35C128.001 127.51 128.985 127.09 130.149 127.09C131.049 127.09 131.751 127.324 132.255 127.792C132.771 128.248 133.029 128.956 133.029 129.916V136ZM129.861 135.28C130.701 135.28 131.325 134.914 131.733 134.182V132.526C131.337 131.782 130.713 131.41 129.861 131.41C129.333 131.41 128.913 131.596 128.601 131.968C128.289 132.328 128.133 132.784 128.133 133.336C128.133 133.888 128.289 134.35 128.601 134.722C128.913 135.094 129.333 135.28 129.861 135.28ZM136.578 136H135.102L137.028 132.454C136.5 132.346 136.062 132.076 135.714 131.644C135.366 131.2 135.192 130.636 135.192 129.952C135.192 129.184 135.426 128.554 135.894 128.062C136.374 127.558 137.034 127.306 137.874 127.306H141.348V136H140.052V132.598H138.324L136.578 136ZM138 131.5H140.052V128.404H138C137.532 128.404 137.166 128.548 136.902 128.836C136.65 129.112 136.524 129.484 136.524 129.952C136.524 130.42 136.65 130.798 136.902 131.086C137.154 131.362 137.52 131.5 138 131.5ZM37.7493 156H36.4713V149.448L34.1493 156H33.6093L31.2873 149.448V156H30.0093V147.306H31.7013L33.8793 153.426L36.0573 147.306H37.7493V156ZM43.1951 156.216C42.0911 156.216 41.2271 155.778 40.6031 154.902C39.9791 154.026 39.6671 152.94 39.6671 151.644C39.6671 150.36 39.9791 149.28 40.6031 148.404C41.2271 147.528 42.0911 147.09 43.1951 147.09C44.3111 147.09 45.1811 147.528 45.8051 148.404C46.4291 149.268 46.7411 150.348 46.7411 151.644C46.7411 152.94 46.4291 154.026 45.8051 154.902C45.1811 155.778 44.3111 156.216 43.1951 156.216ZM43.1951 155.064C43.9151 155.064 44.4611 154.734 44.8331 154.074C45.2051 153.414 45.3911 152.604 45.3911 151.644C45.3911 150.696 45.2051 149.892 44.8331 149.232C44.4611 148.572 43.9151 148.242 43.1951 148.242C42.4871 148.242 41.9471 148.572 41.5751 149.232C41.2031 149.892 41.0171 150.696 41.0171 151.644C41.0171 152.604 41.2031 153.414 41.5751 154.074C41.9471 154.734 42.4871 155.064 43.1951 155.064ZM51.7733 155.064C52.4933 155.064 53.0333 154.734 53.3933 154.074C53.7653 153.414 53.9513 152.598 53.9513 151.626C53.9513 150.678 53.7653 149.88 53.3933 149.232C53.0213 148.572 52.4813 148.242 51.7733 148.242C51.0653 148.242 50.5253 148.572 50.1533 149.232C49.7813 149.88 49.5953 150.678 49.5953 151.626C49.5953 152.598 49.7813 153.414 50.1533 154.074C50.5253 154.734 51.0653 155.064 51.7733 155.064ZM54.3653 154.902C53.7533 155.778 52.8893 156.216 51.7733 156.216C50.6573 156.216 49.7873 155.76 49.1633 154.848C48.5513 153.936 48.2453 152.736 48.2453 151.248C48.2453 149.076 48.5153 147.534 49.0553 146.622C49.5953 145.71 50.5673 145.128 51.9713 144.876C52.6433 144.756 53.1113 144.63 53.3753 144.498C53.6393 144.354 53.7713 144.186 53.7713 143.994H55.0493C55.0493 144.318 54.9713 144.6 54.8153 144.84C54.6593 145.068 54.4313 145.26 54.1313 145.416C53.8313 145.56 53.5433 145.674 53.2673 145.758C52.9913 145.83 52.6613 145.902 52.2773 145.974C51.3053 146.154 50.6033 146.466 50.1713 146.91C49.7513 147.342 49.4873 147.954 49.3793 148.746C49.6193 148.278 49.9613 147.888 50.4053 147.576C50.8493 147.252 51.3713 147.09 51.9713 147.09C53.0033 147.09 53.8133 147.528 54.4013 148.404C55.0013 149.268 55.3013 150.342 55.3013 151.626C55.3013 152.922 54.9893 154.014 54.3653 154.902ZM58.6037 156H57.3257V147.306H58.6037V153.624L61.9877 147.306H63.3197V156H62.0417V149.538L58.6037 156ZM64.8289 156.216V155.1C65.2369 155.1 65.5549 154.866 65.7829 154.398C66.0229 153.918 66.2029 153.054 66.3229 151.806L66.7549 147.306H71.6869V156H70.4089V148.44H67.9429L67.6189 151.932C67.4749 153.516 67.1749 154.626 66.7189 155.262C66.2629 155.898 65.6329 156.216 64.8289 156.216ZM74.0601 147.306H75.3381V150.708H77.4621C78.3261 150.708 78.9861 150.96 79.4421 151.464C79.9101 151.968 80.1441 152.598 80.1441 153.354C80.1441 154.11 79.9101 154.74 79.4421 155.244C78.9861 155.748 78.3261 156 77.4621 156H74.0601V147.306ZM77.3361 151.806H75.3381V154.902H77.3361C77.8041 154.902 78.1641 154.764 78.4161 154.488C78.6801 154.2 78.8121 153.822 78.8121 153.354C78.8121 152.886 78.6861 152.514 78.4341 152.238C78.1821 151.95 77.8161 151.806 77.3361 151.806ZM83.2658 156H81.9878V147.306H83.2658V150.924H86.7038V147.306H87.9818V156H86.7038V152.058H83.2658V156ZM96.115 156H94.819V155.064C94.279 155.832 93.517 156.216 92.533 156.216C91.801 156.216 91.177 155.952 90.661 155.424C90.157 154.896 89.905 154.194 89.905 153.318C89.905 152.442 90.157 151.746 90.661 151.23C91.165 150.714 91.789 150.456 92.533 150.456C93.541 150.456 94.303 150.828 94.819 151.572V150.06C94.819 149.472 94.663 149.016 94.351 148.692C94.039 148.368 93.601 148.206 93.037 148.206C92.209 148.206 91.483 148.56 90.859 149.268L90.283 148.35C91.087 147.51 92.071 147.09 93.235 147.09C94.135 147.09 94.837 147.324 95.341 147.792C95.857 148.248 96.115 148.956 96.115 149.916V156ZM92.947 155.28C93.787 155.28 94.411 154.914 94.819 154.182V152.526C94.423 151.782 93.799 151.41 92.947 151.41C92.419 151.41 91.999 151.596 91.687 151.968C91.375 152.328 91.219 152.784 91.219 153.336C91.219 153.888 91.375 154.35 91.687 154.722C91.999 155.094 92.419 155.28 92.947 155.28ZM99.6641 156H98.1881L100.114 152.454C99.5861 152.346 99.1481 152.076 98.8001 151.644C98.4521 151.2 98.2781 150.636 98.2781 149.952C98.2781 149.184 98.5121 148.554 98.9801 148.062C99.4601 147.558 100.12 147.306 100.96 147.306H104.434V156H103.138V152.598H101.41L99.6641 156ZM101.086 151.5H103.138V148.404H101.086C100.618 148.404 100.252 148.548 99.9881 148.836C99.7361 149.112 99.6101 149.484 99.6101 149.952C99.6101 150.42 99.7361 150.798 99.9881 151.086C100.24 151.362 100.606 151.5 101.086 151.5ZM113.843 156.216C112.751 156.216 111.875 155.784 111.215 154.92C110.567 154.056 110.243 152.964 110.243 151.644C110.243 150.324 110.567 149.238 111.215 148.386C111.875 147.522 112.751 147.09 113.843 147.09C114.875 147.09 115.703 147.474 116.327 148.242L115.625 149.124C115.193 148.536 114.635 148.242 113.951 148.242C113.207 148.242 112.625 148.566 112.205 149.214C111.797 149.862 111.593 150.672 111.593 151.644C111.593 152.616 111.797 153.432 112.205 154.092C112.625 154.74 113.207 155.064 113.951 155.064C114.623 155.064 115.181 154.77 115.625 154.182L116.327 155.064C115.715 155.832 114.887 156.216 113.843 156.216ZM121.66 156H117.988V147.306H121.588C122.344 147.306 122.932 147.51 123.352 147.918C123.784 148.314 124 148.854 124 149.538C124 150.042 123.874 150.462 123.622 150.798C123.382 151.134 123.052 151.368 122.632 151.5C123.076 151.62 123.442 151.884 123.73 152.292C124.018 152.688 124.162 153.138 124.162 153.642C124.162 154.362 123.946 154.938 123.514 155.37C123.094 155.79 122.476 156 121.66 156ZM121.426 154.902C122.362 154.902 122.83 154.44 122.83 153.516C122.83 153.108 122.71 152.766 122.47 152.49C122.23 152.214 121.882 152.076 121.426 152.076H119.266V154.902H121.426ZM121.354 150.996C121.786 150.996 122.11 150.876 122.326 150.636C122.554 150.396 122.668 150.084 122.668 149.7C122.668 149.316 122.56 149.004 122.344 148.764C122.128 148.512 121.798 148.386 121.354 148.386H119.266V150.996H121.354ZM127.525 156H126.049L127.975 152.454C127.447 152.346 127.009 152.076 126.661 151.644C126.313 151.2 126.139 150.636 126.139 149.952C126.139 149.184 126.373 148.554 126.841 148.062C127.321 147.558 127.981 147.306 128.821 147.306H132.295V156H130.999V152.598H129.271L127.525 156ZM128.947 151.5H130.999V148.404H128.947C128.479 148.404 128.113 148.548 127.849 148.836C127.597 149.112 127.471 149.484 127.471 149.952C127.471 150.42 127.597 150.798 127.849 151.086C128.101 151.362 128.467 151.5 128.947 151.5ZM137.171 156.216C135.767 156.216 134.681 155.742 133.913 154.794L134.615 154.02C135.239 154.776 136.085 155.154 137.153 155.154C137.765 155.154 138.257 155.01 138.629 154.722C139.001 154.434 139.187 154.056 139.187 153.588C139.187 152.616 138.479 152.13 137.063 152.13H135.443V151.068H137.045C137.645 151.068 138.125 150.936 138.485 150.672C138.857 150.408 139.043 150.042 139.043 149.574C139.043 149.142 138.857 148.8 138.485 148.548C138.113 148.284 137.627 148.152 137.027 148.152C136.055 148.152 135.299 148.518 134.759 149.25L134.039 148.494C134.759 147.558 135.743 147.09 136.991 147.09C137.999 147.09 138.809 147.3 139.421 147.72C140.045 148.14 140.357 148.71 140.357 149.43C140.357 149.958 140.159 150.42 139.763 150.816C139.379 151.212 138.923 151.464 138.395 151.572C138.947 151.632 139.433 151.848 139.853 152.22C140.285 152.592 140.501 153.078 140.501 153.678C140.501 154.41 140.207 155.016 139.619 155.496C139.031 155.976 138.215 156.216 137.171 156.216ZM142.439 147.306H143.717V150.708H145.841C146.705 150.708 147.365 150.96 147.821 151.464C148.289 151.968 148.523 152.598 148.523 153.354C148.523 154.11 148.289 154.74 147.821 155.244C147.365 155.748 146.705 156 145.841 156H142.439V147.306ZM145.715 151.806H143.717V154.902H145.715C146.183 154.902 146.543 154.764 146.795 154.488C147.059 154.2 147.191 153.822 147.191 153.354C147.191 152.886 147.065 152.514 146.813 152.238C146.561 151.95 146.195 151.806 145.715 151.806Z" fill="#444444"/>
<defs>
<clipPath id="clip0_1_377">
<rect width="48" height="48" fill="white" transform="translate(65 31)"/>
</clipPath>
</defs>
</svg>
