<svg width="178" height="160" viewBox="0 0 178 160" fill="none" xmlns="http://www.w3.org/2000/svg">
<circle opacity="0.05" cx="89" cy="55" r="55" fill="black"/>
<g opacity="0.9">
<path d="M74.6042 44.4009C72.5009 44.4009 70.8047 42.7071 70.8047 40.6465C70.8047 40.2617 70.9723 39.5836 71.3193 38.6693C71.653 37.7902 72.1083 36.8036 72.5855 35.8493C73.3936 34.2333 74.2405 32.7577 74.6043 32.1362C74.968 32.7576 75.815 34.2335 76.6232 35.8496C77.1004 36.8039 77.5556 37.7904 77.8892 38.6695C78.2362 39.5837 78.4038 40.2617 78.4038 40.6465C78.4038 42.7065 76.7075 44.4009 74.6042 44.4009Z" stroke="#B01736" stroke-width="2"/>
<path d="M70.8047 46.3573C70.8047 45.5842 71.4314 44.9575 72.2045 44.9575H77.004C77.7771 44.9575 78.4038 45.5842 78.4038 46.3573V58.4061H70.8047V46.3573Z" stroke="#B01736" stroke-width="2"/>
<path d="M85.2033 46.3573C85.2033 45.5842 85.83 44.9575 86.6031 44.9575H91.4026C92.1757 44.9575 92.8024 45.5842 92.8024 46.3573V58.4061H85.2033V46.3573Z" stroke="#B01736" stroke-width="2"/>
<path d="M92.8024 40.6465V40.6468C92.8029 42.7063 91.1063 44.4009 89.0029 44.4009C86.8995 44.4009 85.2033 42.7071 85.2033 40.6465C85.2033 40.2617 85.3709 39.5836 85.7179 38.6693C86.0516 37.7902 86.5069 36.8036 86.9841 35.8493C87.7922 34.2333 88.6391 32.7577 89.0029 32.1362C89.3666 32.7576 90.2137 34.2335 91.0218 35.8496C91.499 36.8039 91.9542 37.7904 92.2878 38.6695C92.6348 39.5837 92.8024 40.2617 92.8024 40.6465Z" stroke="#B01736" stroke-width="2"/>
<path d="M99.6019 46.3573C99.6019 45.5842 100.229 44.9575 101.002 44.9575H105.801C106.574 44.9575 107.201 45.5842 107.201 46.3573V58.4061H99.6019V46.3573Z" stroke="#B01736" stroke-width="2"/>
<path d="M103.401 44.4009C101.298 44.4009 99.6019 42.7071 99.6019 40.6465C99.6019 40.2617 99.7695 39.5836 100.117 38.6693C100.45 37.7902 100.906 36.8036 101.383 35.8493C102.191 34.2333 103.038 32.7577 103.401 32.1362C103.765 32.7576 104.612 34.2335 105.42 35.8496C105.898 36.8039 106.353 37.7904 106.686 38.6695C107.033 39.5837 107.201 40.2617 107.201 40.6465C107.201 42.7065 105.505 44.4009 103.401 44.4009Z" stroke="#B01736" stroke-width="2"/>
<path d="M65.7344 67.4871L67.8154 69.1011C68.8291 69.887 70.5975 69.887 71.6111 69.1011L73.6928 67.4871C74.1568 67.1289 74.9635 67.1279 75.4275 67.4871L77.5085 69.1011C78.5566 69.9136 80.2599 69.9122 81.3048 69.1011L83.3859 67.4871C83.8493 67.1289 84.6559 67.1279 85.1205 67.4871L87.2022 69.1011C87.7093 69.4943 88.3834 69.7105 89.1 69.7105C89.8172 69.7105 90.4915 69.4938 90.9992 69.1011L93.0809 67.4871C93.5455 67.1279 94.3522 67.1289 94.8156 67.4871L96.8966 69.1011C97.9447 69.9136 99.648 69.9122 100.693 69.1011L102.774 67.4871C103.239 67.1279 104.045 67.1289 104.509 67.4871L106.59 69.1011C107.636 69.9117 109.339 69.9132 110.386 69.1011C111.433 68.289 112.468 67.4871 112.468 67.4871" stroke="#B01736" stroke-width="2"/>
<rect x="66.0039" y="58.4749" width="45.9954" height="19.5226" rx="3.79954" stroke="#B01736" stroke-width="2"/>
</g>
<path d="M57.5814 136H53.4954V123.994H57.4734C58.4094 123.994 59.1354 124.276 59.6514 124.84C60.1794 125.392 60.4434 126.13 60.4434 127.054C60.4434 127.786 60.2754 128.392 59.9394 128.872C59.6034 129.34 59.1594 129.652 58.6074 129.808C59.1834 129.892 59.6634 130.222 60.0474 130.798C60.4434 131.374 60.6414 132.028 60.6414 132.76C60.6414 133.756 60.3774 134.548 59.8494 135.136C59.3214 135.712 58.5654 136 57.5814 136ZM57.2034 129.232C57.7914 129.232 58.2294 129.052 58.5174 128.692C58.8174 128.32 58.9674 127.84 58.9674 127.252C58.9674 126.664 58.8174 126.184 58.5174 125.812C58.2294 125.44 57.7914 125.254 57.2034 125.254H54.9354V129.232H57.2034ZM57.2934 134.722C57.9054 134.722 58.3674 134.542 58.6794 134.182C59.0034 133.81 59.1654 133.288 59.1654 132.616C59.1654 132.004 59.0034 131.5 58.6794 131.104C58.3674 130.696 57.9054 130.492 57.2934 130.492H54.9354V134.722H57.2934ZM62.7046 127.306H63.9826V130.708H66.1066C66.9706 130.708 67.6306 130.96 68.0866 131.464C68.5546 131.968 68.7886 132.598 68.7886 133.354C68.7886 134.11 68.5546 134.74 68.0866 135.244C67.6306 135.748 66.9706 136 66.1066 136H62.7046V127.306ZM65.9806 131.806H63.9826V134.902H65.9806C66.4486 134.902 66.8086 134.764 67.0606 134.488C67.3246 134.2 67.4566 133.822 67.4566 133.354C67.4566 132.886 67.3306 132.514 67.0786 132.238C66.8266 131.95 66.4606 131.806 65.9806 131.806ZM71.3446 136H70.0666V127.306H71.3446V136ZM79.6301 136H78.1901L76.1921 132.508L74.1941 136H72.7541L75.4001 131.572L72.8981 127.306H74.3381L76.1921 130.618L78.0461 127.306H79.4861L76.9841 131.572L79.6301 136ZM83.6776 136.216C82.5736 136.216 81.7096 135.778 81.0856 134.902C80.4616 134.026 80.1496 132.94 80.1496 131.644C80.1496 130.36 80.4616 129.28 81.0856 128.404C81.7096 127.528 82.5736 127.09 83.6776 127.09C84.7936 127.09 85.6636 127.528 86.2876 128.404C86.9116 129.268 87.2236 130.348 87.2236 131.644C87.2236 132.94 86.9116 134.026 86.2876 134.902C85.6636 135.778 84.7936 136.216 83.6776 136.216ZM83.6776 135.064C84.3976 135.064 84.9436 134.734 85.3156 134.074C85.6876 133.414 85.8736 132.604 85.8736 131.644C85.8736 130.696 85.6876 129.892 85.3156 129.232C84.9436 128.572 84.3976 128.242 83.6776 128.242C82.9696 128.242 82.4296 128.572 82.0576 129.232C81.6856 129.892 81.4996 130.696 81.4996 131.644C81.4996 132.604 81.6856 133.414 82.0576 134.074C82.4296 134.734 82.9696 135.064 83.6776 135.064ZM88.2957 138.214V134.974C88.5837 134.926 88.8117 134.83 88.9797 134.686C89.1477 134.53 89.3037 134.224 89.4477 133.768C89.5917 133.3 89.7057 132.646 89.7897 131.806L90.2217 127.306H95.1537V134.866H96.1437V138.214H94.8657V136H89.5917V138.214H88.2957ZM91.4097 128.44L91.0857 131.932C90.9297 133.408 90.5757 134.386 90.0237 134.866H93.8757V128.44H91.4097ZM99.051 136H97.773V127.306H99.051V130.924H102.489V127.306H103.767V136H102.489V132.058H99.051V136ZM109.236 136.216C108.132 136.216 107.268 135.778 106.644 134.902C106.02 134.026 105.708 132.94 105.708 131.644C105.708 130.36 106.02 129.28 106.644 128.404C107.268 127.528 108.132 127.09 109.236 127.09C110.352 127.09 111.222 127.528 111.846 128.404C112.47 129.268 112.782 130.348 112.782 131.644C112.782 132.94 112.47 134.026 111.846 134.902C111.222 135.778 110.352 136.216 109.236 136.216ZM109.236 135.064C109.956 135.064 110.502 134.734 110.874 134.074C111.246 133.414 111.432 132.604 111.432 131.644C111.432 130.696 111.246 129.892 110.874 129.232C110.502 128.572 109.956 128.242 109.236 128.242C108.528 128.242 107.988 128.572 107.616 129.232C107.244 129.892 107.058 130.696 107.058 131.644C107.058 132.604 107.244 133.414 107.616 134.074C107.988 134.734 108.528 135.064 109.236 135.064ZM115.996 136H114.718V127.306H115.996V133.624L119.38 127.306H120.712V136H119.434V129.538L115.996 136ZM120.37 124.858C119.698 125.746 118.816 126.19 117.724 126.19C116.62 126.19 115.732 125.746 115.06 124.858L115.726 124.318C116.194 125.002 116.86 125.344 117.724 125.344C118.576 125.344 119.236 125.002 119.704 124.318L120.37 124.858ZM34.4196 156H30.7476V147.306H34.3476C35.1036 147.306 35.6916 147.51 36.1116 147.918C36.5436 148.314 36.7596 148.854 36.7596 149.538C36.7596 150.042 36.6336 150.462 36.3816 150.798C36.1416 151.134 35.8116 151.368 35.3916 151.5C35.8356 151.62 36.2016 151.884 36.4896 152.292C36.7776 152.688 36.9216 153.138 36.9216 153.642C36.9216 154.362 36.7056 154.938 36.2736 155.37C35.8536 155.79 35.2356 156 34.4196 156ZM34.1856 154.902C35.1216 154.902 35.5896 154.44 35.5896 153.516C35.5896 153.108 35.4696 152.766 35.2296 152.49C34.9896 152.214 34.6416 152.076 34.1856 152.076H32.0256V154.902H34.1856ZM34.1136 150.996C34.5456 150.996 34.8696 150.876 35.0856 150.636C35.3136 150.396 35.4276 150.084 35.4276 149.7C35.4276 149.316 35.3196 149.004 35.1036 148.764C34.8876 148.512 34.5576 148.386 34.1136 148.386H32.0256V150.996H34.1136ZM42.1004 158.214V154.974C42.3884 154.926 42.6164 154.83 42.7844 154.686C42.9524 154.53 43.1084 154.224 43.2524 153.768C43.3964 153.3 43.5104 152.646 43.5944 151.806L44.0264 147.306H48.9584V154.866H49.9484V158.214H48.6704V156H43.3964V158.214H42.1004ZM45.2144 148.44L44.8904 151.932C44.7344 153.408 44.3804 154.386 43.8284 154.866H47.6804V148.44H45.2144ZM54.8716 156.216C53.7316 156.216 52.8256 155.796 52.1536 154.956C51.4816 154.104 51.1456 153 51.1456 151.644C51.1456 150.348 51.4636 149.268 52.0996 148.404C52.7476 147.528 53.6056 147.09 54.6736 147.09C55.7776 147.09 56.6236 147.522 57.2116 148.386C57.8116 149.25 58.1116 150.348 58.1116 151.68V152.076H52.4776C52.5016 152.976 52.7356 153.714 53.1796 154.29C53.6236 154.854 54.2236 155.136 54.9796 155.136C55.7956 155.136 56.4856 154.782 57.0496 154.074L57.7336 154.83C56.9776 155.754 56.0236 156.216 54.8716 156.216ZM56.8336 151.122C56.8216 150.342 56.6356 149.658 56.2756 149.07C55.9156 148.47 55.3756 148.17 54.6556 148.17C53.9596 148.17 53.4256 148.476 53.0536 149.088C52.6936 149.688 52.5016 150.366 52.4776 151.122H56.8336ZM61.2756 156H59.9976V147.306H61.2756V150.924H64.7136V147.306H65.9916V156H64.7136V152.058H61.2756V156ZM68.3648 147.306H69.6428V150.708H71.7668C72.6308 150.708 73.2908 150.96 73.7468 151.464C74.2148 151.968 74.4488 152.598 74.4488 153.354C74.4488 154.11 74.2148 154.74 73.7468 155.244C73.2908 155.748 72.6308 156 71.7668 156H68.3648V147.306ZM71.6408 151.806H69.6428V154.902H71.6408C72.1088 154.902 72.4688 154.764 72.7208 154.488C72.9848 154.2 73.1168 153.822 73.1168 153.354C73.1168 152.886 72.9908 152.514 72.7388 152.238C72.4868 151.95 72.1208 151.806 71.6408 151.806ZM86.0097 154.974C85.4577 155.802 84.6957 156.216 83.7237 156.216C82.7517 156.216 81.9897 155.724 81.4377 154.74V159.312H80.1597V147.306H81.4377V148.548C81.6897 148.104 82.0197 147.75 82.4277 147.486C82.8357 147.222 83.2677 147.09 83.7237 147.09C84.6957 147.09 85.4577 147.504 86.0097 148.332C86.5617 149.16 86.8377 150.264 86.8377 151.644C86.8377 153.024 86.5617 154.134 86.0097 154.974ZM83.3997 155.064C84.0837 155.064 84.5997 154.746 84.9477 154.11C85.3077 153.462 85.4877 152.64 85.4877 151.644C85.4877 150.648 85.3077 149.832 84.9477 149.196C84.5997 148.56 84.0837 148.242 83.3997 148.242C83.0037 148.242 82.6197 148.38 82.2477 148.656C81.8877 148.92 81.6177 149.25 81.4377 149.646V153.624C81.6177 154.02 81.8877 154.362 82.2477 154.65C82.6197 154.926 83.0037 155.064 83.3997 155.064ZM91.8514 156.216C90.7474 156.216 89.8834 155.778 89.2594 154.902C88.6354 154.026 88.3234 152.94 88.3234 151.644C88.3234 150.36 88.6354 149.28 89.2594 148.404C89.8834 147.528 90.7474 147.09 91.8514 147.09C92.9674 147.09 93.8374 147.528 94.4614 148.404C95.0854 149.268 95.3974 150.348 95.3974 151.644C95.3974 152.94 95.0854 154.026 94.4614 154.902C93.8374 155.778 92.9674 156.216 91.8514 156.216ZM91.8514 155.064C92.5714 155.064 93.1174 154.734 93.4894 154.074C93.8614 153.414 94.0474 152.604 94.0474 151.644C94.0474 150.696 93.8614 149.892 93.4894 149.232C93.1174 148.572 92.5714 148.242 91.8514 148.242C91.1434 148.242 90.6034 148.572 90.2314 149.232C89.8594 149.892 89.6734 150.696 89.6734 151.644C89.6734 152.604 89.8594 153.414 90.2314 154.074C90.6034 154.734 91.1434 155.064 91.8514 155.064ZM97.4885 156H95.9585L98.9825 151.212L95.9585 147.306H97.4705L100.368 151.104V147.306H101.664V151.086L104.544 147.306H106.074L103.032 151.212L106.074 156H104.544L102.168 152.076L101.664 152.724V156H100.368V152.724L99.8645 152.076L97.4885 156ZM106.665 158.214V154.974C106.953 154.926 107.181 154.83 107.349 154.686C107.517 154.53 107.673 154.224 107.817 153.768C107.961 153.3 108.075 152.646 108.159 151.806L108.591 147.306H113.523V154.866H114.513V158.214H113.235V156H107.961V158.214H106.665ZM109.779 148.44L109.455 151.932C109.299 153.408 108.945 154.386 108.393 154.866H112.245V148.44H109.779ZM119.436 156.216C118.296 156.216 117.39 155.796 116.718 154.956C116.046 154.104 115.71 153 115.71 151.644C115.71 150.348 116.028 149.268 116.664 148.404C117.312 147.528 118.17 147.09 119.238 147.09C120.342 147.09 121.188 147.522 121.776 148.386C122.376 149.25 122.676 150.348 122.676 151.68V152.076H117.042C117.066 152.976 117.3 153.714 117.744 154.29C118.188 154.854 118.788 155.136 119.544 155.136C120.36 155.136 121.05 154.782 121.614 154.074L122.298 154.83C121.542 155.754 120.588 156.216 119.436 156.216ZM121.398 151.122C121.386 150.342 121.2 149.658 120.84 149.07C120.48 148.47 119.94 148.17 119.22 148.17C118.524 148.17 117.99 148.476 117.618 149.088C117.258 149.688 117.066 150.366 117.042 151.122H121.398ZM125.84 156H124.562V147.306H125.84V150.924H129.278V147.306H130.556V156H129.278V152.058H125.84V156ZM134.207 156H132.929V147.306H134.207V153.624L137.591 147.306H138.923V156H137.645V149.538L134.207 156ZM142.484 156H141.008L142.934 152.454C142.406 152.346 141.968 152.076 141.62 151.644C141.272 151.2 141.098 150.636 141.098 149.952C141.098 149.184 141.332 148.554 141.8 148.062C142.28 147.558 142.94 147.306 143.78 147.306H147.254V156H145.958V152.598H144.23L142.484 156ZM143.906 151.5H145.958V148.404H143.906C143.438 148.404 143.072 148.548 142.808 148.836C142.556 149.112 142.43 149.484 142.43 149.952C142.43 150.42 142.556 150.798 142.808 151.086C143.06 151.362 143.426 151.5 143.906 151.5Z" fill="#444444"/>
</svg>
