<svg width="178" height="140" viewBox="0 0 178 140" fill="none" xmlns="http://www.w3.org/2000/svg">
<circle opacity="0.05" cx="89" cy="55" r="55" fill="black"/>
<g opacity="0.9">
<mask id="path-2-outside-1_1_391" maskUnits="userSpaceOnUse" x="55" y="30" width="68" height="50" fill="black">
<rect fill="white" x="55" y="30" width="68" height="50"/>
<path d="M106.617 31C106.174 31.0065 105.75 31.1855 105.436 31.4984L99.8425 37.0805C99.5212 37.4 99.3412 37.8338 99.3412 38.2866C99.3412 38.7393 99.5218 39.1732 99.8431 39.4932L100.113 39.7622C99.5135 40.3934 98.7343 40.8266 97.8809 41.0038C97.0274 41.181 96.1402 41.0933 95.3378 40.7531C94.2676 40.2986 93.0864 40.1741 91.9451 40.3952C90.803 40.6162 89.7543 41.1727 88.9318 41.9929L88.2756 42.6478C87.5219 41.8003 86.5231 41.207 85.4166 40.9498C83.037 40.5225 80.599 40.5278 78.2212 40.967C78.8276 40.2937 78.8008 39.2642 78.1601 38.6237L72.5639 33.0392C71.897 32.3742 70.8155 32.3736 70.1486 33.0386L56.5002 46.6586C55.8333 47.3241 55.8333 48.4034 56.5002 49.0689L62.0963 54.6535C62.7633 55.319 63.8447 55.319 64.5117 54.6535L64.7528 54.4105C66.1971 55.9935 67.3326 57.8312 68.1022 59.8296C68.9995 61.4624 70.2521 62.8729 71.7681 63.9574C71.2051 64.6271 70.9456 65.5 71.0525 66.3677C71.1594 67.2354 71.622 68.0201 72.3305 68.5344C73.039 69.0482 73.9299 69.2455 74.7898 69.079C74.5606 69.7967 74.5956 70.5725 74.8902 71.2659C75.1841 71.9598 75.7174 72.5258 76.3933 72.8607C77.0697 73.1961 77.8435 73.2785 78.5752 73.0936C78.3478 73.9921 78.5271 74.9444 79.067 75.6983C79.6062 76.4521 80.4501 76.931 81.3754 77.008C82.3007 77.0851 83.2129 76.752 83.8697 76.0977L84.1684 75.8026C84.1565 76.6436 84.4813 77.4537 85.0717 78.0547C85.6614 78.655 86.4673 78.9958 87.31 78.9999C88.1527 79.0047 88.9622 78.6734 89.559 78.079L92.0265 75.6195C92.1209 75.5247 92.2088 75.4245 92.2902 75.319C92.9292 75.7647 93.7101 75.9591 94.484 75.8649C95.2578 75.7706 95.9693 75.3937 96.4819 74.8076C96.9944 74.2209 97.2711 73.4664 97.2598 72.6889L97.6868 73.112C98.4066 73.8315 99.4299 74.1604 100.435 73.9956C101.441 73.8303 102.304 73.1914 102.755 72.2794C103.206 71.3679 103.189 70.2953 102.708 69.3986C103.646 69.4727 104.567 69.126 105.223 68.4528C105.879 67.7795 106.199 66.8497 106.099 65.9168L109.68 62.3425C111.244 60.7809 112.198 58.7126 112.368 56.5109C112.47 55.2029 112.681 53.9056 113.001 52.6327L113.491 53.1163C114.158 53.7818 115.24 53.7818 115.907 53.1163L121.5 47.5342C122.167 46.8686 122.167 45.79 121.5 45.1245L107.852 31.5044C107.525 31.1785 107.08 30.9989 106.618 31.006L106.617 31ZM106.632 31.889C106.853 31.8872 107.064 31.9737 107.219 32.1296L120.864 45.7467C121.018 45.8996 121.104 46.1071 121.104 46.3234C121.104 46.5397 121.018 46.7471 120.864 46.8994L115.274 52.4809C115.121 52.6338 114.913 52.7204 114.696 52.7204C114.479 52.7204 114.272 52.6344 114.119 52.4815L100.467 38.8615C100.15 38.5438 100.15 38.0294 100.467 37.7118L106.064 32.1297C106.214 31.9785 106.418 31.8919 106.632 31.889ZM71.3441 33.4269C71.5644 33.4234 71.777 33.5093 71.9332 33.6652L77.5269 39.2501C77.8446 39.5684 77.8446 40.0816 77.5269 40.3999L63.8785 54.0199C63.7253 54.1728 63.5175 54.2587 63.3007 54.2587C63.0845 54.2587 62.8767 54.1728 62.7235 54.0199L57.1328 48.4378C56.9796 48.2849 56.8929 48.0775 56.8929 47.8612C56.8929 47.6448 56.9796 47.4374 57.1328 47.2851L70.7812 33.6651C70.9308 33.5157 71.1327 33.4299 71.3441 33.4269ZM100.739 40.3904L112.275 51.896C111.866 53.3811 111.6 54.9024 111.48 56.4381C111.325 58.4275 110.463 60.2962 109.05 61.7072L105.823 64.9252C105.666 64.5892 105.452 64.2834 105.19 64.0215L91.7649 50.6247C93.6114 50.7379 95.4452 50.2502 96.9898 49.2344C97.1727 49.0916 97.2161 48.8332 97.0884 48.6394C96.9607 48.4456 96.706 48.3816 96.5023 48.493C94.6744 49.6949 92.4182 50.0575 90.3045 49.4892C89.7148 49.3304 89.0853 49.4987 88.653 49.9295L82.4992 56.0706C81.9231 56.6253 81.0964 56.8357 80.3244 56.6241C79.5523 56.4125 78.9495 55.8104 78.7381 55.0394C78.5266 54.269 78.7381 53.444 79.2951 52.8697L89.562 42.6241C90.2586 41.929 91.1471 41.4572 92.1145 41.27C93.0813 41.0827 94.0825 41.1882 94.9894 41.5728C95.9551 41.9811 97.0222 42.0872 98.0491 41.8762C99.0759 41.6647 100.015 41.146 100.739 40.3904ZM82.748 41.5431C83.5824 41.5816 84.4138 41.6747 85.2357 41.8216C86.171 42.0439 87.0127 42.5535 87.6421 43.2784L78.6615 52.2403C77.8788 53.0391 77.5789 54.193 77.8729 55.2717C78.1668 56.3497 79.0107 57.1924 80.0916 57.4858C81.1719 57.7792 82.3276 57.4799 83.1288 56.6988L89.2826 50.5578C89.4358 50.4049 89.6436 50.319 89.8604 50.319C90.0766 50.319 90.2844 50.4049 90.4377 50.5578L104.559 64.6497C105.118 65.2239 105.331 66.0495 105.119 66.8216C104.909 67.5933 104.305 68.1966 103.532 68.4075C102.758 68.6191 101.93 68.4075 101.355 67.8504L97.7211 64.2241C97.5454 64.0611 97.2716 64.0653 97.1011 64.2342C96.9313 64.4037 96.9254 64.6763 97.0881 64.8523L101.523 69.2782C102.067 69.8554 102.268 70.675 102.055 71.4377C101.841 72.2004 101.243 72.7966 100.479 73.0087C99.7143 73.2215 98.8941 73.0194 98.3156 72.4765L91.8714 66.0457C91.695 65.8851 91.4242 65.8911 91.2556 66.0594C91.0869 66.2277 91.081 66.4991 91.2419 66.6745L95.7031 71.1324C96.2406 71.6794 96.4639 72.4599 96.297 73.2073C96.1307 73.9546 95.5968 74.5668 94.8782 74.8352C94.1597 75.1031 93.3538 74.9905 92.7367 74.5359C93.0289 73.7939 93.0277 72.969 92.7349 72.2276C92.4416 71.4862 91.878 70.8828 91.1576 70.5397C90.4366 70.196 89.6124 70.1379 88.8504 70.3767C89.0054 69.6021 88.8634 68.798 88.4525 68.123C88.0415 67.448 87.3924 66.9513 86.6322 66.7315C85.872 66.5116 85.0573 66.5845 84.3482 66.9353C84.4296 66.0689 84.1481 65.2077 83.5714 64.5558C82.9942 63.9033 82.1728 63.5181 81.3016 63.4914C80.4298 63.4642 79.5859 63.7972 78.9694 64.4124L78.1914 65.1888C78.2039 64.3478 77.8785 63.537 77.2887 62.9361C76.699 62.3357 75.8931 61.9955 75.0504 61.9908C74.2076 61.986 73.3976 62.3179 72.8014 62.9118L72.4005 63.3088C70.9615 62.3031 69.7702 60.9839 68.9174 59.4507C68.1044 57.3575 66.9083 55.4332 65.3911 53.7762L77.0565 42.135C78.9148 41.6537 80.8342 41.4546 82.7518 41.5435L82.748 41.5431ZM74.9284 62.8805C75.5407 62.8527 76.1393 63.0743 76.5858 63.4939C77.0324 63.9135 77.2896 64.4955 77.2991 65.1077C77.308 65.7193 77.0687 66.309 76.6351 66.7422L75.7936 67.579C75.2152 68.1183 74.3968 68.3174 73.6343 68.104C72.8723 67.8907 72.2767 67.2969 72.0629 66.5359C71.8497 65.7755 72.0486 64.9588 72.589 64.3811L73.4252 63.5413C73.8267 63.1413 74.3618 62.9054 74.9284 62.8805ZM81.233 64.4185C81.8192 64.4374 82.375 64.6822 82.7842 65.1012C83.1934 65.5208 83.4244 66.0814 83.428 66.6669C83.4315 67.2519 83.2076 67.8154 82.8038 68.2397L79.4051 71.6344C78.8267 72.1731 78.0077 72.3722 77.2458 72.1589C76.4839 71.9455 75.8882 71.3517 75.6744 70.5914C75.4612 69.8304 75.6602 69.0143 76.2 68.4365L79.5987 65.0419C80.0375 64.6247 80.6267 64.3995 81.233 64.4185ZM85.7987 67.5293C86.3854 67.5494 86.9419 67.7971 87.3499 68.2179C87.7584 68.6393 87.9871 69.2017 87.9877 69.7879C87.9889 70.374 87.762 70.937 87.3552 71.3595L85.0937 73.6157L83.242 75.4636C82.6689 76.0361 81.8333 76.2601 81.05 76.0509C80.2672 75.8417 79.6549 75.2319 79.4453 74.4507C79.235 73.6691 79.4583 72.8353 80.0314 72.2627L84.1506 68.158C84.593 67.7349 85.1863 67.5079 85.7987 67.5293ZM89.8245 71.1615C90.4112 71.1805 90.9683 71.4258 91.3775 71.846C91.7867 72.2656 92.0171 72.8274 92.0195 73.4129C92.0224 73.9985 91.798 74.5621 91.3923 74.9858L88.9308 77.4453C88.3571 78.0112 87.5245 78.2299 86.7459 78.0195C85.9668 77.8097 85.3581 77.2023 85.1478 76.4253C84.937 75.6477 85.1567 74.8174 85.7238 74.2444L88.1884 71.7849C88.6285 71.3671 89.2169 71.1419 89.8245 71.1615Z"/>
</mask>
<path d="M106.617 31C106.174 31.0065 105.75 31.1855 105.436 31.4984L99.8425 37.0805C99.5212 37.4 99.3412 37.8338 99.3412 38.2866C99.3412 38.7393 99.5218 39.1732 99.8431 39.4932L100.113 39.7622C99.5135 40.3934 98.7343 40.8266 97.8809 41.0038C97.0274 41.181 96.1402 41.0933 95.3378 40.7531C94.2676 40.2986 93.0864 40.1741 91.9451 40.3952C90.803 40.6162 89.7543 41.1727 88.9318 41.9929L88.2756 42.6478C87.5219 41.8003 86.5231 41.207 85.4166 40.9498C83.037 40.5225 80.599 40.5278 78.2212 40.967C78.8276 40.2937 78.8008 39.2642 78.1601 38.6237L72.5639 33.0392C71.897 32.3742 70.8155 32.3736 70.1486 33.0386L56.5002 46.6586C55.8333 47.3241 55.8333 48.4034 56.5002 49.0689L62.0963 54.6535C62.7633 55.319 63.8447 55.319 64.5117 54.6535L64.7528 54.4105C66.1971 55.9935 67.3326 57.8312 68.1022 59.8296C68.9995 61.4624 70.2521 62.8729 71.7681 63.9574C71.2051 64.6271 70.9456 65.5 71.0525 66.3677C71.1594 67.2354 71.622 68.0201 72.3305 68.5344C73.039 69.0482 73.9299 69.2455 74.7898 69.079C74.5606 69.7967 74.5956 70.5725 74.8902 71.2659C75.1841 71.9598 75.7174 72.5258 76.3933 72.8607C77.0697 73.1961 77.8435 73.2785 78.5752 73.0936C78.3478 73.9921 78.5271 74.9444 79.067 75.6983C79.6062 76.4521 80.4501 76.931 81.3754 77.008C82.3007 77.0851 83.2129 76.752 83.8697 76.0977L84.1684 75.8026C84.1565 76.6436 84.4813 77.4537 85.0717 78.0547C85.6614 78.655 86.4673 78.9958 87.31 78.9999C88.1527 79.0047 88.9622 78.6734 89.559 78.079L92.0265 75.6195C92.1209 75.5247 92.2088 75.4245 92.2902 75.319C92.9292 75.7647 93.7101 75.9591 94.484 75.8649C95.2578 75.7706 95.9693 75.3937 96.4819 74.8076C96.9944 74.2209 97.2711 73.4664 97.2598 72.6889L97.6868 73.112C98.4066 73.8315 99.4299 74.1604 100.435 73.9956C101.441 73.8303 102.304 73.1914 102.755 72.2794C103.206 71.3679 103.189 70.2953 102.708 69.3986C103.646 69.4727 104.567 69.126 105.223 68.4528C105.879 67.7795 106.199 66.8497 106.099 65.9168L109.68 62.3425C111.244 60.7809 112.198 58.7126 112.368 56.5109C112.47 55.2029 112.681 53.9056 113.001 52.6327L113.491 53.1163C114.158 53.7818 115.24 53.7818 115.907 53.1163L121.5 47.5342C122.167 46.8686 122.167 45.79 121.5 45.1245L107.852 31.5044C107.525 31.1785 107.08 30.9989 106.618 31.006L106.617 31ZM106.632 31.889C106.853 31.8872 107.064 31.9737 107.219 32.1296L120.864 45.7467C121.018 45.8996 121.104 46.1071 121.104 46.3234C121.104 46.5397 121.018 46.7471 120.864 46.8994L115.274 52.4809C115.121 52.6338 114.913 52.7204 114.696 52.7204C114.479 52.7204 114.272 52.6344 114.119 52.4815L100.467 38.8615C100.15 38.5438 100.15 38.0294 100.467 37.7118L106.064 32.1297C106.214 31.9785 106.418 31.8919 106.632 31.889ZM71.3441 33.4269C71.5644 33.4234 71.777 33.5093 71.9332 33.6652L77.5269 39.2501C77.8446 39.5684 77.8446 40.0816 77.5269 40.3999L63.8785 54.0199C63.7253 54.1728 63.5175 54.2587 63.3007 54.2587C63.0845 54.2587 62.8767 54.1728 62.7235 54.0199L57.1328 48.4378C56.9796 48.2849 56.8929 48.0775 56.8929 47.8612C56.8929 47.6448 56.9796 47.4374 57.1328 47.2851L70.7812 33.6651C70.9308 33.5157 71.1327 33.4299 71.3441 33.4269ZM100.739 40.3904L112.275 51.896C111.866 53.3811 111.6 54.9024 111.48 56.4381C111.325 58.4275 110.463 60.2962 109.05 61.7072L105.823 64.9252C105.666 64.5892 105.452 64.2834 105.19 64.0215L91.7649 50.6247C93.6114 50.7379 95.4452 50.2502 96.9898 49.2344C97.1727 49.0916 97.2161 48.8332 97.0884 48.6394C96.9607 48.4456 96.706 48.3816 96.5023 48.493C94.6744 49.6949 92.4182 50.0575 90.3045 49.4892C89.7148 49.3304 89.0853 49.4987 88.653 49.9295L82.4992 56.0706C81.9231 56.6253 81.0964 56.8357 80.3244 56.6241C79.5523 56.4125 78.9495 55.8104 78.7381 55.0394C78.5266 54.269 78.7381 53.444 79.2951 52.8697L89.562 42.6241C90.2586 41.929 91.1471 41.4572 92.1145 41.27C93.0813 41.0827 94.0825 41.1882 94.9894 41.5728C95.9551 41.9811 97.0222 42.0872 98.0491 41.8762C99.0759 41.6647 100.015 41.146 100.739 40.3904ZM82.748 41.5431C83.5824 41.5816 84.4138 41.6747 85.2357 41.8216C86.171 42.0439 87.0127 42.5535 87.6421 43.2784L78.6615 52.2403C77.8788 53.0391 77.5789 54.193 77.8729 55.2717C78.1668 56.3497 79.0107 57.1924 80.0916 57.4858C81.1719 57.7792 82.3276 57.4799 83.1288 56.6988L89.2826 50.5578C89.4358 50.4049 89.6436 50.319 89.8604 50.319C90.0766 50.319 90.2844 50.4049 90.4377 50.5578L104.559 64.6497C105.118 65.2239 105.331 66.0495 105.119 66.8216C104.909 67.5933 104.305 68.1966 103.532 68.4075C102.758 68.6191 101.93 68.4075 101.355 67.8504L97.7211 64.2241C97.5454 64.0611 97.2716 64.0653 97.1011 64.2342C96.9313 64.4037 96.9254 64.6763 97.0881 64.8523L101.523 69.2782C102.067 69.8554 102.268 70.675 102.055 71.4377C101.841 72.2004 101.243 72.7966 100.479 73.0087C99.7143 73.2215 98.8941 73.0194 98.3156 72.4765L91.8714 66.0457C91.695 65.8851 91.4242 65.8911 91.2556 66.0594C91.0869 66.2277 91.081 66.4991 91.2419 66.6745L95.7031 71.1324C96.2406 71.6794 96.4639 72.4599 96.297 73.2073C96.1307 73.9546 95.5968 74.5668 94.8782 74.8352C94.1597 75.1031 93.3538 74.9905 92.7367 74.5359C93.0289 73.7939 93.0277 72.969 92.7349 72.2276C92.4416 71.4862 91.878 70.8828 91.1576 70.5397C90.4366 70.196 89.6124 70.1379 88.8504 70.3767C89.0054 69.6021 88.8634 68.798 88.4525 68.123C88.0415 67.448 87.3924 66.9513 86.6322 66.7315C85.872 66.5116 85.0573 66.5845 84.3482 66.9353C84.4296 66.0689 84.1481 65.2077 83.5714 64.5558C82.9942 63.9033 82.1728 63.5181 81.3016 63.4914C80.4298 63.4642 79.5859 63.7972 78.9694 64.4124L78.1914 65.1888C78.2039 64.3478 77.8785 63.537 77.2887 62.9361C76.699 62.3357 75.8931 61.9955 75.0504 61.9908C74.2076 61.986 73.3976 62.3179 72.8014 62.9118L72.4005 63.3088C70.9615 62.3031 69.7702 60.9839 68.9174 59.4507C68.1044 57.3575 66.9083 55.4332 65.3911 53.7762L77.0565 42.135C78.9148 41.6537 80.8342 41.4546 82.7518 41.5435L82.748 41.5431ZM74.9284 62.8805C75.5407 62.8527 76.1393 63.0743 76.5858 63.4939C77.0324 63.9135 77.2896 64.4955 77.2991 65.1077C77.308 65.7193 77.0687 66.309 76.6351 66.7422L75.7936 67.579C75.2152 68.1183 74.3968 68.3174 73.6343 68.104C72.8723 67.8907 72.2767 67.2969 72.0629 66.5359C71.8497 65.7755 72.0486 64.9588 72.589 64.3811L73.4252 63.5413C73.8267 63.1413 74.3618 62.9054 74.9284 62.8805ZM81.233 64.4185C81.8192 64.4374 82.375 64.6822 82.7842 65.1012C83.1934 65.5208 83.4244 66.0814 83.428 66.6669C83.4315 67.2519 83.2076 67.8154 82.8038 68.2397L79.4051 71.6344C78.8267 72.1731 78.0077 72.3722 77.2458 72.1589C76.4839 71.9455 75.8882 71.3517 75.6744 70.5914C75.4612 69.8304 75.6602 69.0143 76.2 68.4365L79.5987 65.0419C80.0375 64.6247 80.6267 64.3995 81.233 64.4185ZM85.7987 67.5293C86.3854 67.5494 86.9419 67.7971 87.3499 68.2179C87.7584 68.6393 87.9871 69.2017 87.9877 69.7879C87.9889 70.374 87.762 70.937 87.3552 71.3595L85.0937 73.6157L83.242 75.4636C82.6689 76.0361 81.8333 76.2601 81.05 76.0509C80.2672 75.8417 79.6549 75.2319 79.4453 74.4507C79.235 73.6691 79.4583 72.8353 80.0314 72.2627L84.1506 68.158C84.593 67.7349 85.1863 67.5079 85.7987 67.5293ZM89.8245 71.1615C90.4112 71.1805 90.9683 71.4258 91.3775 71.846C91.7867 72.2656 92.0171 72.8274 92.0195 73.4129C92.0224 73.9985 91.798 74.5621 91.3923 74.9858L88.9308 77.4453C88.3571 78.0112 87.5245 78.2299 86.7459 78.0195C85.9668 77.8097 85.3581 77.2023 85.1478 76.4253C84.937 75.6477 85.1567 74.8174 85.7238 74.2444L88.1884 71.7849C88.6285 71.3671 89.2169 71.1419 89.8245 71.1615Z" fill="#B01736"/>
<path d="M106.617 31C106.174 31.0065 105.75 31.1855 105.436 31.4984L99.8425 37.0805C99.5212 37.4 99.3412 37.8338 99.3412 38.2866C99.3412 38.7393 99.5218 39.1732 99.8431 39.4932L100.113 39.7622C99.5135 40.3934 98.7343 40.8266 97.8809 41.0038C97.0274 41.181 96.1402 41.0933 95.3378 40.7531C94.2676 40.2986 93.0864 40.1741 91.9451 40.3952C90.803 40.6162 89.7543 41.1727 88.9318 41.9929L88.2756 42.6478C87.5219 41.8003 86.5231 41.207 85.4166 40.9498C83.037 40.5225 80.599 40.5278 78.2212 40.967C78.8276 40.2937 78.8008 39.2642 78.1601 38.6237L72.5639 33.0392C71.897 32.3742 70.8155 32.3736 70.1486 33.0386L56.5002 46.6586C55.8333 47.3241 55.8333 48.4034 56.5002 49.0689L62.0963 54.6535C62.7633 55.319 63.8447 55.319 64.5117 54.6535L64.7528 54.4105C66.1971 55.9935 67.3326 57.8312 68.1022 59.8296C68.9995 61.4624 70.2521 62.8729 71.7681 63.9574C71.2051 64.6271 70.9456 65.5 71.0525 66.3677C71.1594 67.2354 71.622 68.0201 72.3305 68.5344C73.039 69.0482 73.9299 69.2455 74.7898 69.079C74.5606 69.7967 74.5956 70.5725 74.8902 71.2659C75.1841 71.9598 75.7174 72.5258 76.3933 72.8607C77.0697 73.1961 77.8435 73.2785 78.5752 73.0936C78.3478 73.9921 78.5271 74.9444 79.067 75.6983C79.6062 76.4521 80.4501 76.931 81.3754 77.008C82.3007 77.0851 83.2129 76.752 83.8697 76.0977L84.1684 75.8026C84.1565 76.6436 84.4813 77.4537 85.0717 78.0547C85.6614 78.655 86.4673 78.9958 87.31 78.9999C88.1527 79.0047 88.9622 78.6734 89.559 78.079L92.0265 75.6195C92.1209 75.5247 92.2088 75.4245 92.2902 75.319C92.9292 75.7647 93.7101 75.9591 94.484 75.8649C95.2578 75.7706 95.9693 75.3937 96.4819 74.8076C96.9944 74.2209 97.2711 73.4664 97.2598 72.6889L97.6868 73.112C98.4066 73.8315 99.4299 74.1604 100.435 73.9956C101.441 73.8303 102.304 73.1914 102.755 72.2794C103.206 71.3679 103.189 70.2953 102.708 69.3986C103.646 69.4727 104.567 69.126 105.223 68.4528C105.879 67.7795 106.199 66.8497 106.099 65.9168L109.68 62.3425C111.244 60.7809 112.198 58.7126 112.368 56.5109C112.47 55.2029 112.681 53.9056 113.001 52.6327L113.491 53.1163C114.158 53.7818 115.24 53.7818 115.907 53.1163L121.5 47.5342C122.167 46.8686 122.167 45.79 121.5 45.1245L107.852 31.5044C107.525 31.1785 107.08 30.9989 106.618 31.006L106.617 31ZM106.632 31.889C106.853 31.8872 107.064 31.9737 107.219 32.1296L120.864 45.7467C121.018 45.8996 121.104 46.1071 121.104 46.3234C121.104 46.5397 121.018 46.7471 120.864 46.8994L115.274 52.4809C115.121 52.6338 114.913 52.7204 114.696 52.7204C114.479 52.7204 114.272 52.6344 114.119 52.4815L100.467 38.8615C100.15 38.5438 100.15 38.0294 100.467 37.7118L106.064 32.1297C106.214 31.9785 106.418 31.8919 106.632 31.889ZM71.3441 33.4269C71.5644 33.4234 71.777 33.5093 71.9332 33.6652L77.5269 39.2501C77.8446 39.5684 77.8446 40.0816 77.5269 40.3999L63.8785 54.0199C63.7253 54.1728 63.5175 54.2587 63.3007 54.2587C63.0845 54.2587 62.8767 54.1728 62.7235 54.0199L57.1328 48.4378C56.9796 48.2849 56.8929 48.0775 56.8929 47.8612C56.8929 47.6448 56.9796 47.4374 57.1328 47.2851L70.7812 33.6651C70.9308 33.5157 71.1327 33.4299 71.3441 33.4269ZM100.739 40.3904L112.275 51.896C111.866 53.3811 111.6 54.9024 111.48 56.4381C111.325 58.4275 110.463 60.2962 109.05 61.7072L105.823 64.9252C105.666 64.5892 105.452 64.2834 105.19 64.0215L91.7649 50.6247C93.6114 50.7379 95.4452 50.2502 96.9898 49.2344C97.1727 49.0916 97.2161 48.8332 97.0884 48.6394C96.9607 48.4456 96.706 48.3816 96.5023 48.493C94.6744 49.6949 92.4182 50.0575 90.3045 49.4892C89.7148 49.3304 89.0853 49.4987 88.653 49.9295L82.4992 56.0706C81.9231 56.6253 81.0964 56.8357 80.3244 56.6241C79.5523 56.4125 78.9495 55.8104 78.7381 55.0394C78.5266 54.269 78.7381 53.444 79.2951 52.8697L89.562 42.6241C90.2586 41.929 91.1471 41.4572 92.1145 41.27C93.0813 41.0827 94.0825 41.1882 94.9894 41.5728C95.9551 41.9811 97.0222 42.0872 98.0491 41.8762C99.0759 41.6647 100.015 41.146 100.739 40.3904ZM82.748 41.5431C83.5824 41.5816 84.4138 41.6747 85.2357 41.8216C86.171 42.0439 87.0127 42.5535 87.6421 43.2784L78.6615 52.2403C77.8788 53.0391 77.5789 54.193 77.8729 55.2717C78.1668 56.3497 79.0107 57.1924 80.0916 57.4858C81.1719 57.7792 82.3276 57.4799 83.1288 56.6988L89.2826 50.5578C89.4358 50.4049 89.6436 50.319 89.8604 50.319C90.0766 50.319 90.2844 50.4049 90.4377 50.5578L104.559 64.6497C105.118 65.2239 105.331 66.0495 105.119 66.8216C104.909 67.5933 104.305 68.1966 103.532 68.4075C102.758 68.6191 101.93 68.4075 101.355 67.8504L97.7211 64.2241C97.5454 64.0611 97.2716 64.0653 97.1011 64.2342C96.9313 64.4037 96.9254 64.6763 97.0881 64.8523L101.523 69.2782C102.067 69.8554 102.268 70.675 102.055 71.4377C101.841 72.2004 101.243 72.7966 100.479 73.0087C99.7143 73.2215 98.8941 73.0194 98.3156 72.4765L91.8714 66.0457C91.695 65.8851 91.4242 65.8911 91.2556 66.0594C91.0869 66.2277 91.081 66.4991 91.2419 66.6745L95.7031 71.1324C96.2406 71.6794 96.4639 72.4599 96.297 73.2073C96.1307 73.9546 95.5968 74.5668 94.8782 74.8352C94.1597 75.1031 93.3538 74.9905 92.7367 74.5359C93.0289 73.7939 93.0277 72.969 92.7349 72.2276C92.4416 71.4862 91.878 70.8828 91.1576 70.5397C90.4366 70.196 89.6124 70.1379 88.8504 70.3767C89.0054 69.6021 88.8634 68.798 88.4525 68.123C88.0415 67.448 87.3924 66.9513 86.6322 66.7315C85.872 66.5116 85.0573 66.5845 84.3482 66.9353C84.4296 66.0689 84.1481 65.2077 83.5714 64.5558C82.9942 63.9033 82.1728 63.5181 81.3016 63.4914C80.4298 63.4642 79.5859 63.7972 78.9694 64.4124L78.1914 65.1888C78.2039 64.3478 77.8785 63.537 77.2887 62.9361C76.699 62.3357 75.8931 61.9955 75.0504 61.9908C74.2076 61.986 73.3976 62.3179 72.8014 62.9118L72.4005 63.3088C70.9615 62.3031 69.7702 60.9839 68.9174 59.4507C68.1044 57.3575 66.9083 55.4332 65.3911 53.7762L77.0565 42.135C78.9148 41.6537 80.8342 41.4546 82.7518 41.5435L82.748 41.5431ZM74.9284 62.8805C75.5407 62.8527 76.1393 63.0743 76.5858 63.4939C77.0324 63.9135 77.2896 64.4955 77.2991 65.1077C77.308 65.7193 77.0687 66.309 76.6351 66.7422L75.7936 67.579C75.2152 68.1183 74.3968 68.3174 73.6343 68.104C72.8723 67.8907 72.2767 67.2969 72.0629 66.5359C71.8497 65.7755 72.0486 64.9588 72.589 64.3811L73.4252 63.5413C73.8267 63.1413 74.3618 62.9054 74.9284 62.8805ZM81.233 64.4185C81.8192 64.4374 82.375 64.6822 82.7842 65.1012C83.1934 65.5208 83.4244 66.0814 83.428 66.6669C83.4315 67.2519 83.2076 67.8154 82.8038 68.2397L79.4051 71.6344C78.8267 72.1731 78.0077 72.3722 77.2458 72.1589C76.4839 71.9455 75.8882 71.3517 75.6744 70.5914C75.4612 69.8304 75.6602 69.0143 76.2 68.4365L79.5987 65.0419C80.0375 64.6247 80.6267 64.3995 81.233 64.4185ZM85.7987 67.5293C86.3854 67.5494 86.9419 67.7971 87.3499 68.2179C87.7584 68.6393 87.9871 69.2017 87.9877 69.7879C87.9889 70.374 87.762 70.937 87.3552 71.3595L85.0937 73.6157L83.242 75.4636C82.6689 76.0361 81.8333 76.2601 81.05 76.0509C80.2672 75.8417 79.6549 75.2319 79.4453 74.4507C79.235 73.6691 79.4583 72.8353 80.0314 72.2627L84.1506 68.158C84.593 67.7349 85.1863 67.5079 85.7987 67.5293ZM89.8245 71.1615C90.4112 71.1805 90.9683 71.4258 91.3775 71.846C91.7867 72.2656 92.0171 72.8274 92.0195 73.4129C92.0224 73.9985 91.798 74.5621 91.3923 74.9858L88.9308 77.4453C88.3571 78.0112 87.5245 78.2299 86.7459 78.0195C85.9668 77.8097 85.3581 77.2023 85.1478 76.4253C84.937 75.6477 85.1567 74.8174 85.7238 74.2444L88.1884 71.7849C88.6285 71.3671 89.2169 71.1419 89.8245 71.1615Z" stroke="#B01736" mask="url(#path-2-outside-1_1_391)"/>
</g>
<path d="M86.871 136H81.093V123.994H82.533V134.722H86.871V136ZM90.8947 136H89.4727V125.254H86.6287V123.994H93.7567V125.254H90.8947V136ZM96.9119 136H95.4719V123.994H96.9119V136Z" fill="#444444"/>
</svg>
